# Blender v3.0.1 OBJ File: 'Home for Dead rase.blend'
# www.blender.org
o Cube.063_Cube.038
v 0.000000 6.480631 0.117947
v 0.000000 6.543208 0.117947
v 0.000000 6.480631 0.055369
v 0.000000 6.543208 0.055369
v 1.205195 6.480631 0.117947
v 1.205195 6.543208 0.117947
v 1.205195 6.480631 0.055369
v 1.205195 6.543208 0.055369
v 0.000000 7.063490 0.117947
v 0.000000 7.126068 0.117947
v 0.000000 7.063490 0.055369
v 0.000000 7.126068 0.055369
v 1.205195 7.063490 0.117947
v 1.205195 7.126068 0.117947
v 1.205195 7.063490 0.055369
v 1.205195 7.126068 0.055369
v -1.205195 6.480631 0.117947
v -1.205195 6.543208 0.117947
v -1.205195 6.480631 0.055369
v -1.205195 6.543208 0.055369
v -1.205195 7.063490 0.117947
v -1.205195 7.126068 0.117947
v -1.205195 7.063490 0.055369
v -1.205195 7.126068 0.055369
vt 0.375000 0.250000
vt 0.625000 0.250000
vt 0.625000 0.500000
vt 0.375000 0.500000
vt 0.375000 0.250000
vt 0.625000 0.250000
vt 0.625000 0.500000
vt 0.375000 0.500000
vt 0.625000 0.750000
vt 0.375000 0.750000
vt 0.625000 1.000000
vt 0.375000 1.000000
vt 0.125000 0.500000
vt 0.125000 0.750000
vt 0.875000 0.500000
vt 0.875000 0.750000
vt 0.625000 0.750000
vt 0.375000 0.750000
vt 0.625000 1.000000
vt 0.375000 1.000000
vt 0.125000 0.500000
vt 0.125000 0.750000
vt 0.875000 0.500000
vt 0.875000 0.750000
vt 0.375000 0.500000
vt 0.625000 0.500000
vt 0.375000 0.500000
vt 0.625000 0.500000
vt 0.375000 0.750000
vt 0.625000 0.750000
vt 0.375000 0.750000
vt 0.625000 0.750000
vn 0.0000 0.0000 -1.0000
vn 1.0000 0.0000 0.0000
vn 0.0000 0.0000 1.0000
vn 0.0000 -1.0000 0.0000
vn 0.0000 1.0000 0.0000
vn -1.0000 0.0000 0.0000
g Cube.063_Cube.038_Metalik
s off
f 11/1/1 12/2/1 16/3/1 15/4/1
f 3/5/1 4/6/1 8/7/1 7/8/1
f 7/8/2 8/7/2 6/9/2 5/10/2
f 5/10/3 6/9/3 2/11/3 1/12/3
f 3/13/4 7/8/4 5/10/4 1/14/4
f 8/7/5 4/15/5 2/16/5 6/9/5
f 15/4/2 16/3/2 14/17/2 13/18/2
f 13/18/3 14/17/3 10/19/3 9/20/3
f 11/21/4 15/4/4 13/18/4 9/22/4
f 16/3/5 12/23/5 10/24/5 14/17/5
f 11/1/1 23/25/1 24/26/1 12/2/1
f 3/5/1 19/27/1 20/28/1 4/6/1
f 19/27/6 17/29/6 18/30/6 20/28/6
f 17/29/3 1/12/3 2/11/3 18/30/3
f 3/13/4 1/14/4 17/29/4 19/27/4
f 20/28/5 18/30/5 2/16/5 4/15/5
f 23/25/6 21/31/6 22/32/6 24/26/6
f 21/31/3 9/20/3 10/19/3 22/32/3
f 11/21/4 9/22/4 21/31/4 23/25/4
f 24/26/5 22/32/5 10/24/5 12/23/5
o Cube.064_Cube.039
v -0.032995 6.431826 0.089385
v -0.032995 7.187177 0.089385
v -0.032995 6.431826 0.023394
v -0.032995 7.187177 0.023394
v 0.032995 6.431826 0.089385
v 0.032995 7.187177 0.089385
v 0.032995 6.431826 0.023394
v 0.032995 7.187177 0.023394
vt 0.375000 0.000000
vt 0.625000 0.000000
vt 0.625000 0.250000
vt 0.375000 0.250000
vt 0.625000 0.500000
vt 0.375000 0.500000
vt 0.625000 0.750000
vt 0.375000 0.750000
vt 0.625000 1.000000
vt 0.375000 1.000000
vt 0.125000 0.500000
vt 0.125000 0.750000
vt 0.875000 0.500000
vt 0.875000 0.750000
vn -1.0000 0.0000 0.0000
vn 0.0000 0.0000 -1.0000
vn 1.0000 0.0000 0.0000
vn 0.0000 0.0000 1.0000
vn 0.0000 -1.0000 0.0000
vn 0.0000 1.0000 0.0000
g Cube.064_Cube.039_Metalik
s off
f 25/33/7 26/34/7 28/35/7 27/36/7
f 27/36/8 28/35/8 32/37/8 31/38/8
f 31/38/9 32/37/9 30/39/9 29/40/9
f 29/40/10 30/39/10 26/41/10 25/42/10
f 27/43/11 31/38/11 29/40/11 25/44/11
f 32/37/12 28/45/12 26/46/12 30/39/12
