# Blender v3.0.1 OBJ File: 'Home for Dead rase.blend'
# www.blender.org
o Circle.005_Circle.007
v -0.110631 -0.247542 -0.267087
v -0.267087 -0.247542 -0.110631
v -0.267087 -0.247542 0.110631
v -0.110631 -0.247542 0.267087
v 0.110631 -0.247542 0.267087
v 0.267087 -0.247542 0.110631
v 0.267087 -0.247542 -0.110631
v 0.110631 -0.247542 -0.267087
v -0.110631 0.042614 -0.267087
v -0.267087 0.042614 -0.110631
v -0.267087 0.042614 0.110631
v -0.110631 0.042614 0.267087
v 0.110631 0.042614 0.267087
v 0.267087 0.042614 0.110631
v 0.267087 0.042614 -0.110631
v 0.110631 0.042614 -0.267087
v -0.053005 0.086611 -0.127964
v -0.127964 0.086611 -0.053005
v -0.127964 0.086611 0.053005
v -0.053005 0.086611 0.127964
v 0.053005 0.086611 0.127964
v 0.127964 0.086611 0.053005
v 0.127964 0.086611 -0.053005
v 0.053005 0.086611 -0.127964
v -0.025620 7.256748 -0.061853
v -0.061853 7.256748 -0.025620
v -0.061853 7.256748 0.025620
v -0.025620 7.256450 0.061853
v 0.025620 7.256450 0.061853
v 0.061853 7.256450 0.025620
v 0.061853 7.256450 -0.025620
v 0.025620 7.256450 -0.061853
v 0.017613 7.306644 -0.042522
v 0.042522 7.306338 -0.017613
v 0.042522 7.306338 0.017613
v 0.017613 7.306338 0.042522
v -0.017613 7.306338 0.042522
v -0.042522 7.306644 0.017613
v -0.017613 7.306644 -0.042522
v -0.042522 7.306644 -0.017613
v -0.170978 0.065928 -0.135523
v -0.135523 0.065928 -0.170978
v -0.135523 0.065928 0.170978
v -0.170978 0.065928 0.135523
v 0.170978 0.065928 0.135523
v 0.135523 0.065928 0.170978
v 0.135523 0.065928 -0.170978
v 0.170978 0.065928 -0.135523
v -0.089018 0.098454 -0.072032
v -0.072032 0.098454 -0.089018
v -0.072032 0.098454 0.089018
v -0.089018 0.098454 0.072032
v 0.089018 0.098454 0.072032
v 0.072032 0.098454 0.089018
v 0.072032 0.098454 -0.089018
v 0.089018 0.098454 -0.072032
v -0.133132 0.130275 -0.107529
v -0.107529 0.130275 -0.133132
v -0.107529 0.130275 0.133132
v -0.133132 0.130275 0.107529
v 0.133132 0.130275 0.107529
v 0.107529 0.130275 0.133132
v 0.107529 0.130275 -0.133132
v 0.133132 0.130275 -0.107529
v -0.073946 0.153763 -0.061679
v -0.061679 0.153763 -0.073946
v -0.061679 0.153763 0.073946
v -0.073946 0.153763 0.061679
v 0.073946 0.153763 0.061679
v 0.061679 0.153763 0.073946
v 0.061679 0.153763 -0.073946
v 0.073946 0.153763 -0.061679
vt 0.000000 0.000000
vt 0.000000 0.000000
vt 0.000000 0.000000
vt 0.000000 0.000000
vt 0.000000 0.000000
vt 0.000000 0.000000
vt 0.000000 0.000000
vt 0.000000 0.000000
vt 0.000000 0.000000
vt 0.000000 0.000000
vt 0.000000 0.000000
vt 0.000000 0.000000
vt 0.000000 0.000000
vt 0.000000 0.000000
vt 0.000000 0.000000
vt 0.000000 0.000000
vt 0.000000 0.000000
vt 0.000000 0.000000
vt 0.000000 0.000000
vt 0.000000 0.000000
vt 0.000000 0.000000
vt 0.000000 0.000000
vt 0.000000 0.000000
vt 0.000000 0.000000
vt 0.000000 0.000000
vt 0.000000 0.000000
vt 0.000000 0.000000
vt 0.000000 0.000000
vt 0.000000 0.000000
vt 0.000000 0.000000
vt 0.000000 0.000000
vt 0.000000 0.000000
vt 0.000000 0.000000
vt 0.000000 0.000000
vt 0.000000 0.000000
vt 0.000000 0.000000
vt 0.000000 0.000000
vt 0.000000 0.000000
vt 0.000000 0.000000
vt 0.000000 0.000000
vt 0.000000 0.000000
vt 0.000000 0.000000
vt 0.000000 0.000000
vt 0.000000 0.000000
vt 0.000000 0.000000
vt 0.000000 0.000000
vt 0.000000 0.000000
vt 0.000000 0.000000
vt 0.000000 0.000000
vt 0.000000 0.000000
vt 0.000000 0.000000
vt 0.000000 0.000000
vt 0.000000 0.000000
vt 0.000000 0.000000
vt 0.000000 0.000000
vt 0.000000 0.000000
vt 0.000000 0.000000
vt 0.000000 0.000000
vt 0.000000 0.000000
vt 0.000000 0.000000
vt 0.000000 0.000000
vt 0.000000 0.000000
vt 0.000000 0.000000
vt 0.000000 0.000000
vt 0.000000 0.000000
vt 0.000000 0.000000
vt 0.000000 0.000000
vt 0.000000 0.000000
vt 0.000000 0.000000
vt 0.000000 0.000000
vt 0.000000 0.000000
vt 0.000000 0.000000
vn -0.7071 0.0000 0.7071
vn 0.7071 0.0000 -0.7071
vn 0.0000 0.0000 1.0000
vn 0.0000 0.0000 -1.0000
vn -0.7071 0.0000 -0.7071
vn 0.7071 0.0000 0.7071
vn -1.0000 0.0000 0.0000
vn -0.3015 0.9535 -0.0000
vn 0.3015 0.9535 -0.0000
vn -0.2971 0.9075 0.2971
vn -0.2793 0.9556 -0.0939
vn 0.0000 0.9535 0.3015
vn 0.0000 0.9535 -0.3015
vn 0.0939 0.9556 0.2793
vn 0.4551 -0.7654 0.4551
vn 0.0000 0.0092 1.0000
vn -0.7071 0.0092 -0.7071
vn 0.7071 0.0092 0.7071
vn -1.0000 0.0092 -0.0000
vn 1.0000 0.0092 0.0000
vn -0.7071 0.0092 0.7071
vn 0.7071 0.0092 -0.7071
vn 0.0000 0.0092 -1.0000
vn 0.9324 0.3613 0.0000
vn 0.6605 0.3603 -0.6587
vn -0.9325 0.3613 0.0000
vn -0.6576 0.3613 0.6611
vn -0.6594 0.3613 -0.6594
vn 0.0000 0.3613 0.9324
vn 0.6593 0.3613 0.6593
vn 0.0031 1.0000 0.0031
vn 0.0012 0.3603 -0.9328
vn 1.0000 0.0000 -0.0000
vn 0.6725 -0.3091 -0.6725
vn 0.7863 0.0211 0.6175
vn 0.6725 -0.3091 0.6725
vn 0.6175 0.0211 0.7863
vn 0.2793 0.9556 0.0939
vn 0.4551 -0.7654 -0.4551
vn -0.2793 0.9556 0.0939
vn 0.2971 0.9075 0.2971
vn 0.2793 0.9556 -0.0939
vn -0.4551 -0.7654 -0.4551
vn -0.0939 0.9556 0.2793
vn 0.2971 0.9075 -0.2971
vn 0.0939 0.9556 -0.2793
vn -0.4551 -0.7654 0.4551
vn -0.2971 0.9075 -0.2971
vn -0.0939 0.9556 -0.2793
vn -0.2132 0.9535 0.2132
vn 0.2132 0.9535 -0.2132
vn -0.2132 0.9535 -0.2132
vn 0.2132 0.9535 0.2132
vn -0.7863 0.0211 -0.6175
vn -0.6725 -0.3091 -0.6725
vn 0.7863 0.0211 -0.6175
vn -0.6725 -0.3091 0.6725
vn -0.5729 0.5862 -0.5729
vn -0.7863 0.0211 0.6175
vn -0.6175 0.0211 0.7863
vn -0.5729 0.5862 0.5729
vn 0.6175 0.0211 -0.7863
vn 0.5729 0.5862 0.5729
vn -0.6175 0.0211 -0.7863
vn 0.5729 0.5862 -0.5729
g Circle.005_Circle.007_Metalik
s off
f 3/1/1 4/2/1 12/3/1 11/4/1
f 7/5/2 8/6/2 16/7/2 15/8/2
f 4/2/3 5/9/3 13/10/3 12/3/3
f 8/6/4 1/11/4 9/12/4 16/7/4
f 1/11/5 2/13/5 10/14/5 9/12/5
f 5/9/6 6/15/6 14/16/6 13/10/6
f 2/13/7 3/1/7 11/4/7 10/14/7
f 10/14/8 11/4/8 19/17/8 18/18/8
f 14/16/9 15/8/9 23/19/9 22/20/9
f 11/4/10 12/3/10 43/21/10 44/22/10
f 10/14/11 18/18/11 49/23/11 41/24/11
f 12/3/12 13/10/12 21/25/12 20/26/12
f 16/7/13 9/12/13 17/27/13 24/28/13
f 21/25/14 13/10/14 46/29/14 54/30/14
f 18/18/15 17/27/15 50/31/15 49/23/15
f 20/26/16 21/25/16 29/32/16 28/33/16
f 17/27/17 18/18/17 26/34/17 25/35/17
f 21/25/18 22/20/18 30/36/18 29/32/18
f 18/18/19 19/17/19 27/37/19 26/34/19
f 22/20/20 23/19/20 31/38/20 30/36/20
f 19/17/21 20/26/21 28/33/21 27/37/21
f 23/19/22 24/28/22 32/39/22 31/38/22
f 24/28/23 17/27/23 25/35/23 32/39/23
f 30/36/24 31/38/24 34/40/24 35/41/24
f 31/38/25 32/39/25 33/42/25 34/40/25
f 26/34/26 27/37/26 38/43/26 40/44/26
f 27/37/27 28/33/27 37/45/27 38/43/27
f 25/35/28 26/34/28 40/44/28 39/46/28
f 28/33/29 29/32/29 36/47/29 37/45/29
f 29/32/30 30/36/30 35/41/30 36/47/30
f 40/44/31 38/43/31 37/45/31 36/47/31 35/41/31 34/40/31 33/42/31 39/46/31
f 32/39/32 25/35/32 39/46/32 33/42/32
f 6/15/33 7/5/33 15/8/33 14/16/33
f 51/48/34 52/49/34 68/50/34 67/51/34
f 43/21/35 51/48/35 67/51/35 59/52/35
f 49/23/36 50/31/36 66/53/36 65/54/36
f 56/55/37 48/56/37 64/57/37 72/58/37
f 14/16/38 22/20/38 53/59/38 45/60/38
f 20/26/39 19/17/39 52/49/39 51/48/39
f 19/17/40 11/4/40 44/22/40 52/49/40
f 13/10/41 14/16/41 45/60/41 46/29/41
f 23/19/42 15/8/42 48/56/42 56/55/42
f 22/20/43 21/25/43 54/30/43 53/59/43
f 12/3/44 20/26/44 51/48/44 43/21/44
f 15/8/45 16/7/45 47/61/45 48/56/45
f 16/7/46 24/28/46 55/62/46 47/61/46
f 24/28/47 23/19/47 56/55/47 55/62/47
f 9/12/48 10/14/48 41/24/48 42/63/48
f 17/27/49 9/12/49 42/63/49 50/31/49
f 60/64/50 59/52/50 67/51/50 68/50/50
f 64/57/51 63/65/51 71/66/51 72/58/51
f 58/67/52 57/68/52 65/54/52 66/53/52
f 62/69/53 61/70/53 69/71/53 70/72/53
f 47/61/54 55/62/54 71/66/54 63/65/54
f 53/59/55 54/30/55 70/72/55 69/71/55
f 50/31/56 42/63/56 58/67/56 66/53/56
f 55/62/57 56/55/57 72/58/57 71/66/57
f 42/63/58 41/24/58 57/68/58 58/67/58
f 54/30/59 46/29/59 62/69/59 70/72/59
f 41/24/60 49/23/60 65/54/60 57/68/60
f 44/22/61 43/21/61 59/52/61 60/64/61
f 45/60/62 53/59/62 69/71/62 61/70/62
f 46/29/63 45/60/63 61/70/63 62/69/63
f 52/49/64 44/22/64 60/64/64 68/50/64
f 48/56/65 47/61/65 63/65/65 64/57/65
