# Blender v3.0.1 OBJ File: 'Home for Dead rase.blend'
# www.blender.org
o Cube.065_Cube.044
v -1.147937 6.374123 0.246109
v -1.147937 6.687384 0.230515
v -1.147937 6.369683 0.156917
v -1.147937 6.682944 0.141324
v -0.749553 6.374123 0.246109
v -0.749553 6.687384 0.230515
v -0.749553 6.369683 0.156917
v -0.749553 6.682944 0.141324
v -1.101867 6.642329 0.054965
v -1.101867 6.401521 0.066952
v -0.795623 6.401521 0.066952
v -0.795623 6.642329 0.054965
v -1.120919 6.395368 0.245051
v -1.120919 6.666139 0.231573
v -0.776571 6.666139 0.231573
v -0.776571 6.395368 0.245051
v -1.120919 6.393601 0.209565
v -1.120919 6.664372 0.196086
v -0.776571 6.664372 0.196086
v -0.776571 6.393601 0.209565
v -0.669876 6.367019 0.227083
v -0.669876 6.679873 0.249385
v -0.669876 6.373369 0.138007
v -0.669876 6.686224 0.160309
v -0.271493 6.367019 0.227083
v -0.271493 6.679873 0.249385
v -0.271493 6.373369 0.138007
v -0.271493 6.686224 0.160309
v -0.623806 6.656321 0.069682
v -0.623806 6.415824 0.052538
v -0.317563 6.415824 0.052538
v -0.317563 6.656321 0.069682
v -0.642859 6.388236 0.228595
v -0.642859 6.658656 0.247873
v -0.298510 6.658656 0.247873
v -0.298510 6.388236 0.228595
v -0.642859 6.390762 0.193154
v -0.642859 6.661182 0.212432
v -0.298510 6.661182 0.212432
v -0.298510 6.390762 0.193154
v -0.191816 6.374178 0.246232
v -0.191816 6.687426 0.230387
v -0.191816 6.369667 0.157044
v -0.191816 6.682915 0.141199
v 0.206568 6.374178 0.246232
v 0.206568 6.687426 0.230387
v 0.206568 6.369667 0.157044
v 0.206568 6.682915 0.141199
v -0.145746 6.642231 0.054873
v -0.145746 6.401432 0.067054
v 0.160498 6.401432 0.067054
v 0.160498 6.642231 0.054873
v -0.164798 6.395422 0.245158
v -0.164798 6.666182 0.231461
v 0.179550 6.666182 0.231461
v 0.179550 6.395422 0.245158
v -0.164798 6.393627 0.209672
v -0.164798 6.664387 0.195976
v 0.179550 6.664387 0.195976
v 0.179550 6.393627 0.209672
v 0.286245 6.378942 0.256066
v 0.286245 6.690499 0.219901
v 0.286245 6.368645 0.167360
v 0.286245 6.680202 0.131194
v 0.684629 6.378942 0.256066
v 0.684629 6.690499 0.219901
v 0.684629 6.368645 0.167360
v 0.684629 6.680202 0.131194
v 0.332315 6.633995 0.047694
v 0.332315 6.394496 0.075495
v 0.638558 6.394496 0.075495
v 0.638558 6.633995 0.047694
v 0.313263 6.400072 0.253613
v 0.313263 6.669369 0.222353
v 0.657611 6.669369 0.222353
v 0.657611 6.400072 0.253613
v 0.313263 6.395975 0.218320
v 0.313263 6.665273 0.187060
v 0.657611 6.665273 0.187060
v 0.657611 6.395975 0.218320
v 0.764305 6.372127 0.241422
v 0.764305 6.685716 0.235329
v 0.764305 6.370392 0.152137
v 0.764305 6.683981 0.146044
v 1.162689 6.372127 0.241422
v 1.162689 6.685716 0.235329
v 1.162689 6.370392 0.152137
v 1.162689 6.683981 0.146044
v 0.810375 6.646003 0.058494
v 0.810375 6.404942 0.063178
v 1.116619 6.404942 0.063178
v 1.116619 6.646003 0.058494
v 0.791323 6.393394 0.241009
v 0.791323 6.664449 0.235742
v 1.135671 6.664449 0.235742
v 1.135671 6.393394 0.241009
v 0.791323 6.392704 0.205485
v 0.791323 6.663759 0.200218
v 1.135671 6.663759 0.200218
v 1.135671 6.392704 0.205485
vt 0.375000 0.000000
vt 0.625000 0.000000
vt 0.625000 0.250000
vt 0.375000 0.250000
vt 0.375000 0.500000
vt 0.125000 0.500000
vt 0.125000 0.500000
vt 0.375000 0.500000
vt 0.625000 0.500000
vt 0.625000 0.750000
vt 0.375000 0.750000
vt 0.875000 0.750000
vt 0.875000 0.750000
vt 0.625000 0.750000
vt 0.125000 0.750000
vt 0.875000 0.500000
vt 0.375000 0.250000
vt 0.625000 0.250000
vt 0.625000 0.500000
vt 0.875000 0.500000
vt 0.125000 0.750000
vt 0.375000 0.750000
vt 0.375000 0.750000
vt 0.125000 0.750000
vt 0.375000 0.000000
vt 0.625000 0.000000
vt 0.375000 0.000000
vt 0.625000 0.000000
vt 0.875000 0.750000
vt 0.625000 0.750000
vt 0.375000 0.000000
vt 0.625000 0.000000
vt 0.625000 0.250000
vt 0.375000 0.250000
vt 0.375000 0.500000
vt 0.125000 0.500000
vt 0.125000 0.500000
vt 0.375000 0.500000
vt 0.625000 0.500000
vt 0.625000 0.750000
vt 0.375000 0.750000
vt 0.875000 0.750000
vt 0.875000 0.750000
vt 0.625000 0.750000
vt 0.125000 0.750000
vt 0.875000 0.500000
vt 0.375000 0.250000
vt 0.625000 0.250000
vt 0.625000 0.500000
vt 0.875000 0.500000
vt 0.125000 0.750000
vt 0.375000 0.750000
vt 0.375000 0.750000
vt 0.125000 0.750000
vt 0.375000 0.000000
vt 0.625000 0.000000
vt 0.375000 0.000000
vt 0.625000 0.000000
vt 0.875000 0.750000
vt 0.625000 0.750000
vt 0.375000 0.000000
vt 0.625000 0.000000
vt 0.625000 0.250000
vt 0.375000 0.250000
vt 0.375000 0.500000
vt 0.125000 0.500000
vt 0.125000 0.500000
vt 0.375000 0.500000
vt 0.625000 0.500000
vt 0.625000 0.750000
vt 0.375000 0.750000
vt 0.875000 0.750000
vt 0.875000 0.750000
vt 0.625000 0.750000
vt 0.125000 0.750000
vt 0.875000 0.500000
vt 0.375000 0.250000
vt 0.625000 0.250000
vt 0.625000 0.500000
vt 0.875000 0.500000
vt 0.125000 0.750000
vt 0.375000 0.750000
vt 0.375000 0.750000
vt 0.125000 0.750000
vt 0.375000 0.000000
vt 0.625000 0.000000
vt 0.375000 0.000000
vt 0.625000 0.000000
vt 0.875000 0.750000
vt 0.625000 0.750000
vt 0.375000 0.000000
vt 0.625000 0.000000
vt 0.625000 0.250000
vt 0.375000 0.250000
vt 0.375000 0.500000
vt 0.125000 0.500000
vt 0.125000 0.500000
vt 0.375000 0.500000
vt 0.625000 0.500000
vt 0.625000 0.750000
vt 0.375000 0.750000
vt 0.875000 0.750000
vt 0.875000 0.750000
vt 0.625000 0.750000
vt 0.125000 0.750000
vt 0.875000 0.500000
vt 0.375000 0.250000
vt 0.625000 0.250000
vt 0.625000 0.500000
vt 0.875000 0.500000
vt 0.125000 0.750000
vt 0.375000 0.750000
vt 0.375000 0.750000
vt 0.125000 0.750000
vt 0.375000 0.000000
vt 0.625000 0.000000
vt 0.375000 0.000000
vt 0.625000 0.000000
vt 0.875000 0.750000
vt 0.625000 0.750000
vt 0.375000 0.000000
vt 0.625000 0.000000
vt 0.625000 0.250000
vt 0.375000 0.250000
vt 0.375000 0.500000
vt 0.125000 0.500000
vt 0.125000 0.500000
vt 0.375000 0.500000
vt 0.625000 0.500000
vt 0.625000 0.750000
vt 0.375000 0.750000
vt 0.875000 0.750000
vt 0.875000 0.750000
vt 0.625000 0.750000
vt 0.125000 0.750000
vt 0.875000 0.500000
vt 0.375000 0.250000
vt 0.625000 0.250000
vt 0.625000 0.500000
vt 0.875000 0.500000
vt 0.125000 0.750000
vt 0.375000 0.750000
vt 0.375000 0.750000
vt 0.125000 0.750000
vt 0.375000 0.000000
vt 0.625000 0.000000
vt 0.375000 0.000000
vt 0.625000 0.000000
vt 0.875000 0.750000
vt 0.625000 0.750000
vt 0.625000 1.000000
vt 0.375000 1.000000
vt 0.625000 1.000000
vt 0.375000 1.000000
vt 0.625000 1.000000
vt 0.375000 1.000000
vt 0.625000 1.000000
vt 0.375000 1.000000
vt 0.625000 1.000000
vt 0.375000 1.000000
vn -1.0000 0.0000 0.0000
vn 0.0000 -0.9427 -0.3336
vn 1.0000 -0.0000 0.0000
vn 0.0000 0.0497 0.9988
vn 0.0000 -0.9988 0.0497
vn 0.0000 0.9988 -0.0497
vn 0.0000 -0.0497 -0.9988
vn 0.0000 0.9049 -0.4256
vn -0.8865 -0.0230 -0.4621
vn 0.8865 -0.0230 -0.4621
vn 0.0000 -0.8956 -0.4449
vn 0.0000 -0.0711 0.9975
vn 0.0000 -0.9975 -0.0711
vn 0.0000 0.9975 0.0711
vn 0.0000 0.0711 -0.9975
vn 0.0000 0.9496 -0.3133
vn -0.8865 0.0329 -0.4615
vn 0.8865 0.0329 -0.4615
vn 0.0000 -0.9430 -0.3329
vn 0.0000 0.0505 0.9987
vn 0.0000 -0.9987 0.0505
vn 0.0000 0.9987 -0.0505
vn 0.0000 -0.0505 -0.9987
vn 0.0000 0.9046 -0.4263
vn -0.8865 -0.0234 -0.4621
vn 0.8865 -0.0234 -0.4621
vn 0.0000 -0.9626 -0.2709
vn 0.0000 0.1153 0.9933
vn 0.0000 -0.9933 0.1153
vn 0.0000 0.9933 -0.1153
vn 0.0000 -0.1153 -0.9933
vn 0.0000 0.8750 -0.4842
vn -0.8865 -0.0534 -0.4596
vn 0.8865 -0.0534 -0.4596
vn 0.0000 -0.9322 -0.3620
vn 0.0000 0.0194 0.9998
vn 0.0000 -0.9998 0.0194
vn 0.0000 0.9998 -0.0194
vn 0.0000 -0.0194 -0.9998
vn 0.0000 0.9174 -0.3980
vn -0.8865 -0.0090 -0.4626
vn 0.8865 -0.0090 -0.4626
g Cube.065_Cube.044_metalik_2
s off
f 1/1/1 2/2/1 4/3/1 3/4/1
f 7/5/2 3/6/2 10/7/2 11/8/2
f 7/5/3 8/9/3 6/10/3 5/11/3
f 6/10/4 2/12/4 14/13/4 15/14/4
f 3/6/5 7/5/5 5/11/5 1/15/5
f 8/9/6 4/16/6 2/12/6 6/10/6
f 10/17/7 9/18/7 12/19/7 11/8/7
f 4/16/8 8/9/8 12/19/8 9/20/8
f 3/4/9 4/3/9 9/18/9 10/17/9
f 8/9/10 7/5/10 11/8/10 12/19/10
f 13/21/6 16/22/6 20/23/6 17/24/6
f 5/11/4 6/10/4 15/14/4 16/22/4
f 2/2/4 1/1/4 13/25/4 14/26/4
f 1/15/4 5/11/4 16/22/4 13/21/4
f 14/26/3 13/25/3 17/27/3 18/28/3
f 15/14/5 14/13/5 18/29/5 19/30/5
f 16/22/1 15/14/1 19/30/1 20/23/1
f 21/31/1 22/32/1 24/33/1 23/34/1
f 27/35/11 23/36/11 30/37/11 31/38/11
f 27/35/3 28/39/3 26/40/3 25/41/3
f 26/40/12 22/42/12 34/43/12 35/44/12
f 23/36/13 27/35/13 25/41/13 21/45/13
f 28/39/14 24/46/14 22/42/14 26/40/14
f 30/47/15 29/48/15 32/49/15 31/38/15
f 24/46/16 28/39/16 32/49/16 29/50/16
f 23/34/17 24/33/17 29/48/17 30/47/17
f 28/39/18 27/35/18 31/38/18 32/49/18
f 33/51/14 36/52/14 40/53/14 37/54/14
f 25/41/12 26/40/12 35/44/12 36/52/12
f 22/32/12 21/31/12 33/55/12 34/56/12
f 21/45/12 25/41/12 36/52/12 33/51/12
f 34/56/3 33/55/3 37/57/3 38/58/3
f 35/44/13 34/43/13 38/59/13 39/60/13
f 36/52/1 35/44/1 39/60/1 40/53/1
f 41/61/1 42/62/1 44/63/1 43/64/1
f 47/65/19 43/66/19 50/67/19 51/68/19
f 47/65/3 48/69/3 46/70/3 45/71/3
f 46/70/20 42/72/20 54/73/20 55/74/20
f 43/66/21 47/65/21 45/71/21 41/75/21
f 48/69/22 44/76/22 42/72/22 46/70/22
f 50/77/23 49/78/23 52/79/23 51/68/23
f 44/76/24 48/69/24 52/79/24 49/80/24
f 43/64/25 44/63/25 49/78/25 50/77/25
f 48/69/26 47/65/26 51/68/26 52/79/26
f 53/81/22 56/82/22 60/83/22 57/84/22
f 45/71/20 46/70/20 55/74/20 56/82/20
f 42/62/20 41/61/20 53/85/20 54/86/20
f 41/75/20 45/71/20 56/82/20 53/81/20
f 54/86/3 53/85/3 57/87/3 58/88/3
f 55/74/21 54/73/21 58/89/21 59/90/21
f 56/82/1 55/74/1 59/90/1 60/83/1
f 61/91/1 62/92/1 64/93/1 63/94/1
f 67/95/27 63/96/27 70/97/27 71/98/27
f 67/95/3 68/99/3 66/100/3 65/101/3
f 66/100/28 62/102/28 74/103/28 75/104/28
f 63/96/29 67/95/29 65/101/29 61/105/29
f 68/99/30 64/106/30 62/102/30 66/100/30
f 70/107/31 69/108/31 72/109/31 71/98/31
f 64/106/32 68/99/32 72/109/32 69/110/32
f 63/94/33 64/93/33 69/108/33 70/107/33
f 68/99/34 67/95/34 71/98/34 72/109/34
f 73/111/30 76/112/30 80/113/30 77/114/30
f 65/101/28 66/100/28 75/104/28 76/112/28
f 62/92/28 61/91/28 73/115/28 74/116/28
f 61/105/28 65/101/28 76/112/28 73/111/28
f 74/116/3 73/115/3 77/117/3 78/118/3
f 75/104/29 74/103/29 78/119/29 79/120/29
f 76/112/1 75/104/1 79/120/1 80/113/1
f 81/121/1 82/122/1 84/123/1 83/124/1
f 87/125/35 83/126/35 90/127/35 91/128/35
f 87/125/3 88/129/3 86/130/3 85/131/3
f 86/130/36 82/132/36 94/133/36 95/134/36
f 83/126/37 87/125/37 85/131/37 81/135/37
f 88/129/38 84/136/38 82/132/38 86/130/38
f 90/137/39 89/138/39 92/139/39 91/128/39
f 84/136/40 88/129/40 92/139/40 89/140/40
f 83/124/41 84/123/41 89/138/41 90/137/41
f 88/129/42 87/125/42 91/128/42 92/139/42
f 93/141/38 96/142/38 100/143/38 97/144/38
f 85/131/36 86/130/36 95/134/36 96/142/36
f 82/122/36 81/121/36 93/145/36 94/146/36
f 81/135/36 85/131/36 96/142/36 93/141/36
f 94/146/3 93/145/3 97/147/3 98/148/3
f 95/134/37 94/133/37 98/149/37 99/150/37
f 96/142/1 95/134/1 99/150/1 100/143/1
g Cube.065_Cube.044_Glass
f 20/23/4 19/30/4 18/151/4 17/152/4
f 40/53/12 39/60/12 38/153/12 37/154/12
f 60/83/20 59/90/20 58/155/20 57/156/20
f 80/113/28 79/120/28 78/157/28 77/158/28
f 100/143/36 99/150/36 98/159/36 97/160/36
