# Blender v3.0.1 OBJ File: 'Home for Dead rase.blend'
# www.blender.org
o Cube.010_Cube.022
v -0.059607 -0.134285 0.810317
v -0.059607 -0.134285 -0.810317
v 0.059607 -0.134285 0.810317
v 0.059607 -0.134285 -0.810317
v -0.044073 0.134285 0.810317
v -0.059607 0.105219 0.810317
v -0.059607 0.105219 -0.810317
v -0.044073 0.134285 -0.810317
v 0.059607 0.105219 0.810317
v 0.044073 0.134285 0.810317
v 0.044073 0.134285 -0.810317
v 0.059607 0.105219 -0.810317
vt 0.657576 0.500000
vt 0.842424 0.500000
vt 0.842424 0.750000
vt 0.657576 0.750000
vt 0.375000 0.500000
vt 0.597944 0.500000
vt 0.597944 0.750000
vt 0.375000 0.750000
vt 0.375000 0.000000
vt 0.597944 0.000000
vt 0.597944 0.250000
vt 0.375000 0.250000
vt 0.125000 0.500000
vt 0.125000 0.750000
vt 0.625000 0.282576
vt 0.625000 0.467424
vt 0.625000 0.000000
vt 0.625000 0.250000
vt 0.625000 0.782576
vt 0.625000 0.967424
vt 0.597944 1.000000
vt 0.375000 1.000000
vn 0.0000 1.0000 0.0000
vn 1.0000 0.0000 0.0000
vn -1.0000 0.0000 0.0000
vn 0.0000 -1.0000 0.0000
vn 0.0000 0.0000 -1.0000
vn -0.8819 0.4713 0.0000
vn 0.8819 0.4713 0.0000
vn 0.0000 0.0000 1.0000
g Cube.010_Cube.022_Black
s off
f 11/1/1 8/2/1 5/3/1 10/4/1
f 4/5/2 12/6/2 9/7/2 3/8/2
f 1/9/3 6/10/3 7/11/3 2/12/3
f 2/13/4 4/5/4 3/8/4 1/14/4
f 2/12/5 7/11/5 8/15/5 11/16/5 12/6/5 4/5/5
f 5/17/6 8/18/6 7/11/6 6/10/6
f 11/1/7 10/4/7 9/7/7 12/6/7
f 3/8/8 9/7/8 10/19/8 5/20/8 6/21/8 1/22/8
