# Blender v3.0.1 OBJ File: 'Home for Dead rase.blend'
# www.blender.org
o Road_Barrier_Cube.015
v -0.253915 0.058497 0.700608
v -0.080866 0.579682 0.700608
v -0.253915 0.058497 -0.700608
v -0.080866 0.579682 -0.700608
v 0.253915 0.058497 0.700608
v 0.080866 0.579682 0.700608
v 0.253915 0.058497 -0.700608
v 0.080866 0.579682 -0.700608
v -0.139114 0.205141 0.700608
v -0.139114 0.205141 -0.700608
v 0.139114 0.205141 -0.700608
v 0.139114 0.205141 0.700608
v -0.253915 -0.012215 -0.700608
v -0.253915 -0.012215 0.700608
v 0.253915 -0.012215 -0.700608
v 0.253915 -0.012215 0.700608
vt 0.500000 0.000000
vt 0.625000 0.000000
vt 0.625000 0.250000
vt 0.500000 0.250000
vt 0.625000 0.500000
vt 0.500000 0.500000
vt 0.625000 0.750000
vt 0.500000 0.750000
vt 0.625000 1.000000
vt 0.500000 1.000000
vt 0.375000 0.750000
vt 0.375000 1.000000
vt 0.375000 1.000000
vt 0.375000 0.750000
vt 0.875000 0.500000
vt 0.875000 0.750000
vt 0.375000 0.500000
vt 0.375000 0.250000
vt 0.375000 0.000000
vt 0.125000 0.500000
vt 0.375000 0.500000
vt 0.125000 0.750000
vt 0.375000 0.250000
vt 0.375000 0.000000
vn -0.9881 0.1537 0.0000
vn 0.0000 0.0000 -1.0000
vn 0.9881 0.1537 0.0000
vn 0.0000 0.0000 1.0000
vn 0.0000 1.0000 0.0000
vn 0.7874 0.6164 0.0000
vn -0.7874 0.6164 0.0000
vn 0.0000 -1.0000 0.0000
vn -1.0000 0.0000 0.0000
vn 1.0000 0.0000 0.0000
g Road_Barrier_Cube.015_Black
s off
f 9/1/1 2/2/1 4/3/1 10/4/1
f 10/4/2 4/3/2 8/5/2 11/6/2
f 11/6/3 8/5/3 6/7/3 12/8/3
f 12/8/4 6/7/4 2/9/4 9/10/4
f 5/11/4 1/12/4 14/13/4 16/14/4
f 8/5/5 4/15/5 2/16/5 6/7/5
f 5/11/4 12/8/4 9/10/4 1/12/4
f 7/17/6 11/6/6 12/8/6 5/11/6
f 3/18/2 10/4/2 11/6/2 7/17/2
f 1/19/7 9/1/7 10/4/7 3/18/7
f 13/20/8 15/21/8 16/14/8 14/22/8
f 3/18/2 7/17/2 15/21/2 13/23/2
f 1/19/9 3/18/9 13/23/9 14/24/9
f 7/17/10 5/11/10 16/14/10 15/21/10
