# Blender v3.2.2 OBJ File: 'Car for Dead rase.blend'
# www.blender.org
o Cube.049_Cube.091
v 0.096756 -0.103899 0.731366
v 0.272779 0.735435 0.538539
v 0.096753 -0.103899 -0.716068
v 0.272779 0.735435 -0.523241
v 1.465103 -0.103795 0.706556
v 0.715072 0.717338 0.549442
v 1.465103 -0.103795 -0.691258
v 0.715072 0.717338 -0.534144
v -0.660560 -0.103899 -0.716068
v -0.660560 -0.103899 0.731366
v -0.752407 0.408531 0.661545
v -0.752407 0.408531 -0.646247
v -1.439095 0.013070 -0.661056
v -1.439095 0.013070 0.676354
v -1.215663 0.366455 0.628178
v -1.210798 0.365681 -0.618889
v -1.443855 0.051924 -0.664818
v -1.443852 0.051897 0.680114
v -1.378369 0.338040 0.582455
v -1.378369 0.338040 -0.567156
v -1.640257 0.112109 -0.418666
v -1.640255 0.112097 0.433964
v -1.534495 0.283681 0.471481
v -1.534495 0.283681 -0.456183
v 1.844715 0.593629 -0.550192
v 1.815462 -0.102215 -0.690614
v 1.815462 -0.102216 0.705912
v 1.844720 0.593635 0.567841
v 1.851452 0.601317 -0.550045
v 1.815565 -0.101257 -0.690616
v 1.815565 -0.101258 0.705914
v 1.851457 0.601323 0.567694
v 1.846606 0.515771 -0.609909
v 1.891913 -0.068289 -0.605560
v 1.891909 -0.068319 0.620855
v 1.846606 0.515771 0.625207
v 0.096753 -0.103899 -0.716068
v 0.116047 -0.105169 -0.101983
v 0.096756 -0.103899 0.731366
v 0.272779 0.735435 0.538539
v 0.279561 0.776916 0.007062
v 0.272779 0.735435 -0.523241
v 1.465104 -0.103820 0.706556
v 1.389522 -0.100835 -0.000000
v 1.465104 -0.103820 -0.691258
v 0.715072 0.717338 -0.534144
v 0.718996 0.763864 0.007062
v 0.715072 0.717338 0.549442
v -1.259572 -0.082961 -0.655915
v -1.018328 -0.102850 -0.000000
v -1.259569 -0.082989 0.671210
v -0.796783 0.424354 0.557133
v -1.011735 0.467037 0.007649
v -1.018328 0.476330 -0.444896
v -1.585446 0.013897 -0.463503
v -1.653488 0.013922 -0.015799
v -1.592851 0.013899 0.469234
v -1.491129 0.395101 0.142145
v -1.504644 0.395965 0.007425
v -1.491129 0.395101 -0.126847
v -1.630881 0.051159 -0.416043
v -1.678730 0.056964 -0.003120
v -1.630879 0.051150 0.431341
v -1.447088 0.343598 0.423451
v -1.581612 0.373514 0.007425
v -1.446679 0.343801 -0.408310
v -1.648486 0.111014 -0.367292
v -1.690986 0.111250 0.003696
v -1.650974 0.111007 0.367708
v -1.595427 0.281485 0.287358
v -1.631600 0.287322 0.007649
v -1.592483 0.281092 -0.286155
v 1.887426 -0.101040 0.617404
v 1.969899 -0.094754 -0.013733
v 1.887430 -0.101010 -0.602109
v 1.845063 0.594026 -0.550185
v 1.882608 0.593619 0.005248
v 1.845068 0.594032 0.567833
v 1.887582 -0.099903 0.617524
v 1.975118 -0.088147 -0.022564
v 1.887586 -0.099872 -0.602229
v 1.851788 0.601701 -0.550038
v 1.889321 0.601280 0.005252
v 1.851793 0.601707 0.567686
v 1.959368 -0.068580 0.370158
v 1.983134 -0.069336 0.007649
v 1.959371 -0.068567 -0.354860
v 1.855981 0.573203 -0.471367
v 1.881010 0.550855 -0.000078
v 1.855987 0.573209 0.489016
vt 0.125000 0.687500
vt 0.125000 0.750000
vt 0.125000 0.750000
vt 0.125000 0.687500
vt 0.375000 0.250000
vt 0.625000 0.250000
vt 0.625000 0.500000
vt 0.375000 0.500000
vt 0.375000 0.750000
vt 0.625000 0.750000
vt 0.625000 1.000000
vt 0.375000 1.000000
vt 0.375000 0.687500
vt 0.625000 0.687500
vt 0.875000 0.687500
vt 0.875000 0.750000
vt 0.875000 0.687500
vt 0.875000 0.625000
vt 0.875000 0.625000
vt 0.875000 0.687500
vt 0.375000 0.250000
vt 0.625000 0.250000
vt 0.625000 1.000000
vt 0.375000 1.000000
vt 0.875000 0.562500
vt 0.875000 0.500000
vt 0.875000 0.500000
vt 0.875000 0.562500
vt 0.875000 0.562500
vt 0.875000 0.500000
vt 0.875000 0.500000
vt 0.875000 0.562500
vt 0.125000 0.562500
vt 0.125000 0.625000
vt 0.125000 0.625000
vt 0.125000 0.562500
vt 0.875000 0.750000
vt 0.875000 0.750000
vt 0.125000 0.500000
vt 0.125000 0.500000
vt 0.625000 0.250000
vt 0.375000 0.250000
vt 0.375000 0.250000
vt 0.625000 0.250000
vt 0.125000 0.687500
vt 0.125000 0.750000
vt 0.125000 0.750000
vt 0.125000 0.687500
vt 0.625000 0.250000
vt 0.375000 0.250000
vt 0.375000 1.000000
vt 0.625000 1.000000
vt 0.625000 1.000000
vt 0.375000 1.000000
vt 0.375000 0.187500
vt 0.625000 0.187500
vt 0.625000 1.000000
vt 0.375000 1.000000
vt 0.875000 0.500000
vt 0.875000 0.562500
vt 0.125000 0.750000
vt 0.125000 0.687500
vt 0.375000 0.500000
vt 0.625000 0.500000
vt 0.625000 0.500000
vt 0.375000 0.500000
vt 0.375000 0.750000
vt 0.625000 0.750000
vt 0.375000 0.562500
vt 0.375000 0.562500
vt 0.625000 0.687500
vt 0.625000 0.750000
vt 0.375000 0.750000
vt 0.375000 0.750000
vt 0.625000 0.750000
vt 0.375000 0.562500
vt 0.625000 0.687500
vt 0.375000 0.687500
vt 0.625000 0.687500
vt 0.375000 0.500000
vt 0.375000 0.562500
vt 0.625000 0.500000
vt 0.625000 0.562500
vt 0.625000 0.562500
vt 0.625000 0.625000
vt 0.625000 0.625000
vt 0.375000 0.687500
vt 0.375000 0.625000
vt 0.375000 0.625000
vt 0.625000 0.562500
vt 0.625000 0.625000
vt 0.375000 0.687500
vt 0.375000 0.625000
vt 0.625000 0.562500
vt 0.625000 0.625000
vt 0.375000 0.625000
vt 0.125000 0.500000
vt 0.125000 0.562500
vt 0.125000 0.562500
vt 0.125000 0.500000
vt 0.125000 0.625000
vt 0.125000 0.625000
vt 0.875000 0.750000
vt 0.875000 0.687500
vt 0.875000 0.687500
vt 0.875000 0.750000
vt 0.875000 0.625000
vt 0.875000 0.625000
vt 0.375000 0.000000
vt 0.625000 0.000000
vt 0.625000 0.062500
vt 0.375000 0.062500
vt 0.625000 0.125000
vt 0.375000 0.125000
vt 0.875000 0.625000
vt 0.125000 0.500000
vt 0.125000 0.562500
vt 0.125000 0.625000
vn 0.0000 -0.9446 -0.3283
vn 0.0096 0.2094 -0.9778
vn 0.0096 0.2094 0.9778
vn 0.0181 0.0009 0.9998
vn 0.0000 0.0000 1.0000
vn -0.1194 0.9875 0.1027
vn 0.0331 0.1886 -0.9815
vn 0.0331 0.1886 0.9815
vn -0.1972 0.8204 -0.5367
vn -0.2562 0.9481 -0.1885
vn -0.2142 -0.9767 0.0160
vn -0.1131 0.9843 0.1354
vn -0.2832 -0.5706 -0.7708
vn -0.6673 0.3370 -0.6642
vn -0.7881 -0.1789 0.5890
vn -0.2361 0.3102 -0.9209
vn -0.2132 0.3078 0.9273
vn -0.8622 0.4402 -0.2505
vn -0.6673 0.3369 0.6642
vn -0.4806 0.8555 -0.1928
vn -0.8368 -0.1514 0.5262
vn -0.2352 0.2020 -0.9507
vn 0.0041 0.1929 0.9812
vn 0.0046 -0.9999 0.0096
vn -0.0129 0.0305 0.9995
vn 0.4192 0.0970 0.9027
vn -0.2312 0.1989 0.9523
vn 0.7697 -0.1319 -0.6246
vn -0.1205 0.3840 0.9155
vn 0.9734 0.0972 0.2077
vn 0.9124 -0.1646 -0.3748
vn 0.9978 -0.0176 0.0637
vn 0.3950 0.0996 -0.9133
vn -0.0576 0.1371 -0.9889
vn -0.2119 -0.9772 -0.0163
vn -0.1518 0.9883 0.0124
vn -0.2877 -0.5786 0.7632
vn -0.2401 0.9173 -0.3178
vn 0.9979 -0.0161 -0.0632
vn 0.9919 -0.1102 -0.0629
vn 0.9912 -0.1172 0.0615
vn 0.9124 -0.1645 0.3748
vn 0.6496 -0.7576 0.0638
vn 0.7042 -0.7060 -0.0750
vn 0.9735 0.0977 -0.2065
vn 0.9864 0.1554 -0.0534
vn 0.9864 0.1560 0.0523
vn -0.0990 0.3249 -0.9406
vn -0.7514 0.6579 0.0513
vn -0.7514 0.6579 -0.0506
vn 0.7697 -0.1319 0.6246
vn 0.8700 -0.4806 0.1095
vn 0.7591 -0.6431 -0.1006
vn 0.0059 0.1952 -0.9808
vn -0.0110 0.0289 -0.9995
vn 0.1265 0.9909 -0.0465
vn 0.1265 0.9909 0.0461
vn 0.0046 -0.9999 -0.0093
vn 0.0081 -0.9999 -0.0069
vn -0.8282 -0.1506 -0.5397
vn -0.9734 -0.2008 -0.1106
vn -0.9693 -0.2225 0.1050
vn -0.4817 0.8554 0.1904
vn -0.6713 0.7133 0.2014
vn -0.6693 0.7154 -0.2004
vn -0.8656 0.4385 0.2419
vn -0.9352 0.3353 0.1139
vn -0.9330 0.3400 -0.1179
vn -0.7879 -0.1817 -0.5884
vn -0.7832 -0.6134 -0.1013
vn -0.7958 -0.5988 0.0901
vn -0.2612 0.9465 0.1895
vn -0.4656 0.8678 0.1736
vn -0.4650 0.8681 -0.1738
vn -0.2660 0.9299 0.2540
vn -0.2515 0.9600 0.1232
vn -0.2159 0.9760 -0.0290
vn 0.0342 0.9960 -0.0821
vn 0.0342 0.9960 0.0820
vn 0.0181 0.0009 -0.9998
vn 0.0016 -1.0000 0.0014
vn 0.0017 -1.0000 -0.0012
vn 0.0000 -0.9444 0.3287
vn -0.0103 -0.9998 -0.0145
vn -0.0091 -0.9999 0.0125
vn 0.0083 -0.9999 0.0072
vn -0.0616 0.1440 0.9877
g Cube.049_Cube.091_None
s off
f 39/1/1 1/2/1 10/3/1 51/4/1
f 3/5/2 4/6/2 8/7/2 7/8/2
f 5/9/3 6/10/3 2/11/3 1/12/3
f 39/1/4 43/13/4 5/9/4 1/2/4
f 48/14/5 40/15/5 2/16/5 6/10/5
f 52/17/6 53/18/6 59/19/6 58/20/6
f 4/6/7 3/5/7 9/21/7 12/22/7
f 1/12/8 2/11/8 11/23/8 10/24/8
f 42/25/9 4/26/9 12/27/9 54/28/9
f 60/29/10 16/30/10 20/31/10 66/32/10
f 49/33/11 50/34/11 56/35/11 55/36/11
f 52/17/12 58/20/12 15/37/12 11/38/12
f 9/39/13 49/33/13 55/36/13 13/40/13
f 20/41/14 17/42/14 21/43/14 24/44/14
f 57/45/15 14/46/15 18/47/15 63/48/15
f 16/49/16 13/50/16 17/42/16 20/41/16
f 14/51/17 15/52/17 19/53/17 18/54/17
f 67/55/18 72/56/18 24/44/18 21/43/18
f 18/54/19 19/53/19 23/57/19 22/58/19
f 66/32/20 20/31/20 24/59/20 72/60/20
f 63/48/21 18/47/21 22/61/21 69/62/21
f 26/63/22 25/64/22 29/65/22 30/66/22
f 6/10/23 5/9/23 27/67/23 28/68/23
f 45/69/24 7/8/24 26/63/24 75/70/24
f 48/14/25 6/10/25 28/68/25 78/71/25
f 32/72/26 31/73/26 35/74/26 36/75/26
f 28/68/27 27/67/27 31/73/27 32/72/27
f 75/70/28 26/63/28 30/66/28 81/76/28
f 78/71/29 28/68/29 32/72/29 84/77/29
f 85/78/30 90/79/30 36/75/30 35/74/30
f 81/76/31 30/66/31 34/80/31 87/81/31
f 84/77/32 32/72/32 36/75/32 90/79/32
f 30/66/33 29/65/33 33/82/33 34/80/33
f 12/22/34 9/21/34 13/50/34 16/49/34
f 50/34/35 51/4/35 57/45/35 56/35/35
f 53/18/36 54/28/36 60/29/36 59/19/36
f 10/3/37 14/46/37 57/45/37 51/4/37
f 12/27/38 16/30/38 60/29/38 54/28/38
f 29/65/39 82/83/39 88/84/39 33/82/39
f 82/83/40 83/85/40 89/86/40 88/84/40
f 83/85/41 84/77/41 90/79/41 89/86/41
f 31/73/42 79/87/42 85/78/42 35/74/42
f 79/87/43 80/88/43 86/89/43 85/78/43
f 80/88/44 81/76/44 87/81/44 86/89/44
f 34/80/45 33/82/45 88/84/45 87/81/45
f 87/81/46 88/84/46 89/86/46 86/89/46
f 86/89/47 89/86/47 90/79/47 85/78/47
f 25/64/48 76/90/48 82/83/48 29/65/48
f 76/90/49 77/91/49 83/85/49 82/83/49
f 77/91/50 78/71/50 84/77/50 83/85/50
f 27/67/51 73/92/51 79/87/51 31/73/51
f 73/92/52 74/93/52 80/88/52 79/87/52
f 74/93/53 75/70/53 81/76/53 80/88/53
f 7/8/54 8/7/54 25/64/54 26/63/54
f 8/7/55 46/94/55 76/90/55 25/64/55
f 46/94/56 47/95/56 77/91/56 76/90/56
f 47/95/57 48/14/57 78/71/57 77/91/57
f 5/9/58 43/13/58 73/92/58 27/67/58
f 43/13/59 44/96/59 74/93/59 73/92/59
f 17/97/60 61/98/60 67/99/60 21/100/60
f 61/98/61 62/101/61 68/102/61 67/99/61
f 62/101/62 63/48/62 69/62/62 68/102/62
f 19/103/63 64/104/63 70/105/63 23/106/63
f 64/104/64 65/107/64 71/108/64 70/105/64
f 65/107/65 66/32/65 72/60/65 71/108/65
f 22/109/66 23/110/66 70/111/66 69/112/66
f 69/112/67 70/111/67 71/113/67 68/114/67
f 68/114/68 71/113/68 72/56/68 67/55/68
f 13/40/69 55/36/69 61/98/69 17/97/69
f 55/36/70 56/35/70 62/101/70 61/98/70
f 56/35/71 57/45/71 63/48/71 62/101/71
f 15/37/72 58/20/72 64/104/72 19/103/72
f 58/20/73 59/19/73 65/107/73 64/104/73
f 59/19/74 60/29/74 66/32/74 65/107/74
f 2/16/75 40/15/75 52/17/75 11/38/75
f 40/15/76 41/115/76 53/18/76 52/17/76
f 41/115/77 42/25/77 54/28/77 53/18/77
f 8/7/5 4/26/5 42/25/5 46/94/5
f 46/94/78 42/25/78 41/115/78 47/95/78
f 47/95/79 41/115/79 40/15/79 48/14/79
f 3/116/80 7/8/80 45/69/80 37/117/80
f 37/117/81 45/69/81 44/96/81 38/118/81
f 38/118/82 44/96/82 43/13/82 39/1/82
f 3/116/83 37/117/83 49/33/83 9/39/83
f 37/117/84 38/118/84 50/34/84 49/33/84
f 38/118/85 39/1/85 51/4/85 50/34/85
f 44/96/86 45/69/86 75/70/86 74/93/86
f 11/23/87 15/52/87 14/51/87 10/24/87
