# Blender v3.0.1 OBJ File: 'Car for Dead rase.blend'
# www.blender.org
o Cube.001_Cube.085
v 0.768116 -0.837844 1.000000
v 0.492127 -0.837844 1.000000
v 0.770342 0.737713 -1.000000
v 0.494583 0.737713 -1.000000
v 1.016623 -0.837844 1.000000
v 1.015363 0.739533 1.000000
v 1.016623 -0.837844 -1.000000
v 1.015363 0.739533 -1.000000
v 0.000000 -0.837844 -1.000000
v 0.000000 0.739533 -1.000000
v 0.000000 -0.837844 1.000000
v 0.000000 0.739533 1.000000
v 0.768116 -0.837844 -1.000000
v 0.492127 -0.837844 -1.000000
v 0.770342 0.737713 1.000000
v 0.494583 0.737713 1.000000
v 0.688135 0.861565 1.000000
v 0.581404 0.861565 1.000000
v 0.581404 0.861565 -1.000000
v 0.688135 0.861565 -1.000000
v 0.702025 0.883758 1.000000
v 0.567514 0.883758 1.000000
v 0.567514 0.883758 -1.000000
v 0.702025 0.883758 -1.000000
v 0.702025 0.934168 1.000000
v 0.567514 0.934168 1.000000
v 0.567514 0.934168 -1.000000
v 0.702025 0.934168 -1.000000
v 0.709554 0.948544 1.000000
v 0.559985 0.948544 1.000000
v 0.559985 0.948544 -1.000000
v 0.709554 0.948544 -1.000000
v 1.014861 0.952187 1.000000
v 0.769841 0.952056 1.000000
v 0.769841 0.952056 -1.000000
v 1.014861 0.952187 -1.000000
v 0.000000 0.952187 -1.000000
v 0.494082 0.952056 -1.000000
v 0.494082 0.952056 1.000000
v 0.000000 0.952187 1.000000
v -0.768116 -0.837844 1.000000
v -0.492127 -0.837844 1.000000
v -0.770342 0.737713 -1.000000
v -0.494583 0.737713 -1.000000
v -1.016623 -0.837844 1.000000
v -1.015363 0.739533 1.000000
v -1.016623 -0.837844 -1.000000
v -1.015363 0.739533 -1.000000
v -0.768116 -0.837844 -1.000000
v -0.492127 -0.837844 -1.000000
v -0.770342 0.737713 1.000000
v -0.494583 0.737713 1.000000
v -0.688135 0.861565 1.000000
v -0.581404 0.861565 1.000000
v -0.581404 0.861565 -1.000000
v -0.688135 0.861565 -1.000000
v -0.702025 0.883758 1.000000
v -0.567514 0.883758 1.000000
v -0.567514 0.883758 -1.000000
v -0.702025 0.883758 -1.000000
v -0.702025 0.934168 1.000000
v -0.567514 0.934168 1.000000
v -0.567514 0.934168 -1.000000
v -0.702025 0.934168 -1.000000
v -0.709554 0.948544 1.000000
v -0.559985 0.948544 1.000000
v -0.559985 0.948544 -1.000000
v -0.709554 0.948544 -1.000000
v -1.014861 0.952187 1.000000
v -0.769841 0.952056 1.000000
v -0.769841 0.952056 -1.000000
v -1.014861 0.952187 -1.000000
v -0.494082 0.952056 -1.000000
v -0.494082 0.952056 1.000000
v 1.662261 0.410090 -1.000000
v 1.664325 -0.812307 -1.000000
v 1.664325 -0.812307 1.000000
v 1.662261 0.410090 1.000000
v 1.661441 0.574887 -1.000000
v 1.661441 0.574887 1.000000
v -1.662261 0.410090 -1.000000
v -1.664325 -0.812307 -1.000000
v -1.664325 -0.812307 1.000000
v -1.662261 0.410090 1.000000
v -1.661441 0.574887 -1.000000
v -1.661441 0.574887 1.000000
vt 0.625000 0.458333
vt 0.625000 0.416667
vt 0.625000 0.416667
vt 0.625000 0.458333
vt 0.625000 0.833333
vt 0.625000 0.791667
vt 0.625000 0.791667
vt 0.625000 0.833333
vt 0.625000 0.833333
vt 0.625000 0.791667
vt 0.666667 0.750000
vt 0.666667 0.500000
vt 0.666667 0.500000
vt 0.666667 0.750000
vt 0.708333 0.500000
vt 0.708333 0.750000
vt 0.708333 0.750000
vt 0.708333 0.500000
vt 0.708333 0.500000
vt 0.708333 0.750000
vt 0.708333 0.750000
vt 0.708333 0.500000
vt 0.625000 0.416667
vt 0.625000 0.458333
vt 0.666667 0.500000
vt 0.666667 0.750000
vt 0.666667 0.750000
vt 0.666667 0.500000
vt 0.666667 0.500000
vt 0.666667 0.750000
vt 0.625000 0.416667
vt 0.625000 0.458333
vt 0.625000 0.791667
vt 0.625000 0.833333
vt 0.625000 0.791667
vt 0.625000 0.833333
vt 0.708333 0.750000
vt 0.708333 0.500000
vt 0.625000 0.416667
vt 0.625000 0.458333
vt 0.625000 0.458333
vt 0.625000 0.458333
vt 0.625000 0.416667
vt 0.625000 0.416667
vt 0.625000 0.833333
vt 0.625000 0.833333
vt 0.625000 0.791667
vt 0.625000 0.791667
vt 0.625000 0.833333
vt 0.625000 0.791667
vt 0.666667 0.750000
vt 0.666667 0.750000
vt 0.666667 0.500000
vt 0.666667 0.500000
vt 0.708333 0.500000
vt 0.708333 0.500000
vt 0.708333 0.750000
vt 0.708333 0.750000
vt 0.708333 0.500000
vt 0.708333 0.500000
vt 0.708333 0.750000
vt 0.708333 0.750000
vt 0.625000 0.458333
vt 0.625000 0.416667
vt 0.666667 0.750000
vt 0.666667 0.500000
vt 0.666667 0.750000
vt 0.666667 0.750000
vt 0.666667 0.500000
vt 0.666667 0.500000
vt 0.625000 0.458333
vt 0.625000 0.416667
vt 0.625000 0.833333
vt 0.625000 0.791667
vt 0.625000 0.833333
vt 0.625000 0.791667
vt 0.708333 0.500000
vt 0.708333 0.750000
vt 0.625000 0.458333
vt 0.625000 0.416667
vt 0.250000 0.500000
vt 0.291667 0.500000
vt 0.291667 0.750000
vt 0.250000 0.750000
vt 0.375000 0.458333
vt 0.625000 0.500000
vt 0.375000 0.500000
vt 0.625000 0.500000
vt 0.375000 0.500000
vt 0.333333 0.500000
vt 0.375000 0.750000
vt 0.333333 0.750000
vt 0.666667 0.750000
vt 0.666667 0.500000
vt 0.375000 0.791667
vt 0.375000 0.833333
vt 0.625000 0.875000
vt 0.375000 0.875000
vt 0.625000 0.750000
vt 0.375000 0.375000
vt 0.625000 0.375000
vt 0.375000 0.416667
vt 0.625000 0.500000
vt 0.625000 0.750000
vt 0.708333 0.500000
vt 0.750000 0.500000
vt 0.750000 0.750000
vt 0.708333 0.750000
vt 0.625000 0.458333
vt 0.625000 0.375000
vt 0.625000 0.416667
vt 0.625000 0.791667
vt 0.625000 0.750000
vt 0.625000 0.750000
vt 0.625000 0.833333
vt 0.625000 0.875000
vt 0.291667 0.750000
vt 0.291667 0.500000
vt 0.375000 0.458333
vt 0.375000 0.500000
vt 0.625000 0.500000
vt 0.375000 0.750000
vt 0.625000 0.750000
vt 0.625000 0.750000
vt 0.375000 0.750000
vt 0.333333 0.500000
vt 0.333333 0.750000
vt 0.666667 0.500000
vt 0.666667 0.750000
vt 0.375000 0.791667
vt 0.375000 0.833333
vt 0.375000 0.416667
vt 0.625000 0.500000
vt 0.625000 0.750000
vt 0.708333 0.500000
vt 0.708333 0.750000
vt 0.625000 0.458333
vt 0.625000 0.416667
vt 0.625000 0.791667
vt 0.375000 0.750000
vt 0.625000 0.833333
vt 0.625000 0.500000
vt 0.375000 0.500000
vt 0.625000 0.500000
vt 0.625000 0.750000
vt 0.625000 0.500000
vn 0.0000 0.0000 -1.0000
vn 0.0000 0.0000 1.0000
vn 0.8332 0.5530 0.0000
vn -0.8188 0.5740 -0.0000
vn -1.0000 0.0000 -0.0000
vn -0.8477 -0.5305 -0.0000
vn 0.8477 -0.5305 0.0000
vn 0.8858 -0.4640 0.0000
vn 1.0000 0.0000 0.0000
vn -0.8858 -0.4640 -0.0000
vn 0.0000 1.0000 -0.0000
vn -0.8332 0.5530 0.0000
vn 0.8188 0.5740 -0.0000
vn 0.0000 -1.0000 0.0000
vn -1.0000 -0.0023 0.0000
vn -0.0005 1.0000 0.0000
vn 0.0003 1.0000 0.0000
vn 1.0000 0.0023 0.0000
vn 1.0000 -0.0023 0.0000
vn 0.0005 1.0000 0.0000
vn -0.0003 1.0000 0.0000
vn -1.0000 0.0023 0.0000
vn 1.0000 0.0017 0.0000
vn 1.0000 0.0050 0.0000
vn -1.0000 0.0017 0.0000
vn -1.0000 0.0050 0.0000
vn 0.5040 0.8637 0.0000
vn 0.0394 -0.9992 0.0000
vn -0.5040 0.8637 0.0000
vn -0.0394 -0.9992 0.0000
g Cube.001_Cube.085_Black
s off
f 3/1/1 4/2/1 19/3/1 20/4/1
f 18/5/2 17/6/2 21/7/2 22/8/2
f 16/9/2 15/10/2 17/6/2 18/5/2
f 15/11/3 3/12/3 20/13/3 17/14/3
f 4/15/4 16/16/4 18/17/4 19/18/4
f 23/19/5 22/20/5 26/21/5 27/22/5
f 19/18/6 18/17/6 22/20/6 23/19/6
f 20/4/1 19/3/1 23/23/1 24/24/1
f 17/14/7 20/13/7 24/25/7 21/26/7
f 25/27/8 28/28/8 32/29/8 29/30/8
f 24/24/1 23/23/1 27/31/1 28/32/1
f 21/26/9 24/25/9 28/28/9 25/27/9
f 22/8/2 21/7/2 25/33/2 26/34/2
f 26/34/2 25/33/2 29/35/2 30/36/2
f 27/22/10 26/21/10 30/37/10 31/38/10
f 28/32/1 27/31/1 31/39/1 32/40/1
f 29/30/11 32/29/11 31/39/11 30/37/11
f 43/41/1 56/42/1 55/43/1 44/44/1
f 54/45/2 58/46/2 57/47/2 53/48/2
f 52/49/2 54/45/2 53/48/2 51/50/2
f 51/51/12 53/52/12 56/53/12 43/54/12
f 44/55/13 55/56/13 54/57/13 52/58/13
f 59/59/9 63/60/9 62/61/9 58/62/9
f 55/56/7 59/59/7 58/62/7 54/57/7
f 56/42/1 60/63/1 59/64/1 55/43/1
f 53/52/6 57/65/6 60/66/6 56/53/6
f 61/67/10 65/68/10 68/69/10 64/70/10
f 60/63/1 64/71/1 63/72/1 59/64/1
f 57/65/5 61/67/5 64/70/5 60/66/5
f 58/46/2 62/73/2 61/74/2 57/47/2
f 62/73/2 66/75/2 65/76/2 61/74/2
f 63/60/8 67/77/8 66/78/8 62/61/8
f 64/71/1 68/79/1 67/80/1 63/72/1
f 65/68/11 66/78/11 67/80/11 68/69/11
g Cube.001_Cube.085_Lattice
f 9/81/14 14/82/14 2/83/14 11/84/14
f 13/85/1 3/1/1 8/86/1 7/87/1
f 7/87/1 8/86/1 75/88/1 76/89/1
f 13/90/14 7/87/14 5/91/14 1/92/14
f 3/12/15 15/11/15 34/93/15 35/94/15
f 1/95/2 15/10/2 16/9/2 2/96/2
f 2/96/2 16/9/2 12/97/2 11/98/2
f 5/91/2 6/99/2 15/10/2 1/95/2
f 14/82/14 13/90/14 1/92/14 2/83/14
f 9/100/1 10/101/1 4/2/1 14/102/1
f 14/102/1 4/2/1 3/1/1 13/85/1
f 36/103/16 35/94/16 34/93/16 33/104/16
f 38/105/17 37/106/17 40/107/17 39/108/17
f 8/86/1 3/1/1 35/109/1 36/103/1
f 4/2/1 10/101/1 37/110/1 38/111/1
f 16/16/18 4/15/18 38/105/18 39/108/18
f 15/10/2 6/99/2 33/104/2 34/112/2
f 33/104/2 6/99/2 78/113/2 80/114/2
f 12/97/2 16/9/2 39/115/2 40/116/2
f 9/81/14 11/84/14 42/117/14 50/118/14
f 49/119/1 47/120/1 48/121/1 43/41/1
f 45/122/2 46/123/2 84/124/2 83/125/2
f 49/126/14 41/127/14 45/122/14 47/120/14
f 43/54/19 71/128/19 70/129/19 51/51/19
f 41/130/2 42/131/2 52/49/2 51/50/2
f 42/131/2 11/98/2 12/97/2 52/49/2
f 45/122/2 41/130/2 51/50/2 46/123/2
f 50/118/14 42/117/14 41/127/14 49/126/14
f 9/100/1 50/132/1 44/44/1 10/101/1
f 50/132/1 49/119/1 43/41/1 44/44/1
f 72/133/20 69/134/20 70/129/20 71/128/20
f 73/135/21 74/136/21 40/107/21 37/106/21
f 48/121/1 72/133/1 71/137/1 43/41/1
f 44/44/1 73/138/1 37/110/1 10/101/1
f 52/58/22 74/136/22 73/135/22 44/55/22
f 51/50/2 70/139/2 69/134/2 46/123/2
f 6/99/2 5/91/2 77/140/2 78/113/2
f 12/97/2 40/116/2 74/141/2 52/49/2
f 76/89/23 75/88/23 78/113/23 77/140/23
f 78/113/24 75/88/24 79/142/24 80/114/24
f 82/143/25 83/125/25 84/124/25 81/144/25
f 84/124/26 86/145/26 85/146/26 81/144/26
f 48/121/1 47/120/1 82/143/1 81/144/1
f 8/86/1 36/103/1 79/142/1 75/88/1
f 36/103/27 33/104/27 80/114/27 79/142/27
f 46/123/2 69/134/2 86/145/2 84/124/2
f 5/91/28 7/87/28 76/89/28 77/140/28
f 69/134/29 72/133/29 85/146/29 86/145/29
f 47/120/30 45/122/30 83/125/30 82/143/30
f 72/133/1 48/121/1 81/144/1 85/146/1
