# Blender v3.0.1 OBJ File: 'Car for Dead rase.blend'
# www.blender.org
o Plane.021_Plane.054
v -0.075869 0.322459 0.354701
v -0.028417 0.124233 0.711192
v -0.023019 -0.118400 0.695255
v -0.102313 0.330329 0.722603
v -0.087567 -0.332556 0.679063
v -0.060195 -0.335993 0.354203
v -0.001149 0.119386 0.354542
v 0.004588 -0.121624 0.354360
v -0.102313 0.330329 -0.722603
v -0.087567 -0.332556 -0.679063
v -0.028417 0.124233 -0.711192
v -0.023019 -0.118400 -0.695255
v -0.060195 -0.335993 -0.354203
v -0.075869 0.322459 -0.354701
v 0.004588 -0.121624 -0.354360
v -0.001149 0.119386 -0.354542
v -0.057909 -0.330111 0.679063
v -0.030537 -0.333548 0.354203
v 0.006639 -0.115955 0.695255
v -0.046212 0.324904 0.354701
v 0.001241 0.126678 0.711192
v -0.072655 0.332774 0.722603
v -0.046212 0.324904 -0.354701
v -0.030537 -0.333548 -0.354203
v 0.001241 0.126678 -0.711192
v -0.072655 0.332774 -0.722603
v 0.006638 -0.115955 -0.695255
v -0.057909 -0.330111 -0.679063
v -0.057909 -0.330111 0.679063
v -0.030537 -0.333548 0.354203
v 0.006639 -0.115955 0.695255
v -0.046212 0.324904 0.354701
v 0.028508 0.121831 0.354542
v 0.034246 -0.119179 0.354360
v -0.030537 -0.333548 -0.354203
v 0.001241 0.126678 0.711192
v -0.072655 0.332774 0.722603
v 0.028508 0.121831 -0.354542
v -0.046212 0.324904 -0.354701
v 0.034246 -0.119179 -0.354360
v 0.001241 0.126678 -0.711192
v -0.072655 0.332774 -0.722603
v 0.006638 -0.115955 -0.695255
v -0.057909 -0.330111 -0.679063
v -0.078027 0.391612 0.329115
v -0.013123 0.150876 0.659892
v -0.005741 -0.143789 0.645105
v -0.114196 0.401169 0.670480
v -0.094027 -0.403871 0.630081
v -0.056588 -0.408045 0.328654
v 0.024172 0.144990 0.328968
v 0.032019 -0.147705 0.328799
v -0.114196 0.401169 -0.670480
v -0.094027 -0.403871 -0.630081
v -0.013123 0.150876 -0.659892
v -0.005741 -0.143789 -0.645105
v -0.056588 -0.408045 -0.328654
v -0.078027 0.391612 -0.329115
v 0.032019 -0.147705 -0.328799
v 0.024172 0.144990 -0.328968
v -0.053462 -0.400902 0.630081
v -0.016024 -0.405076 0.328654
v 0.034824 -0.140820 0.645105
v -0.037463 0.394582 0.329115
v 0.027441 0.153845 0.659892
v -0.073631 0.404139 0.670480
v -0.037463 0.394582 -0.329115
v -0.016024 -0.405076 -0.328654
v 0.027441 0.153845 -0.659892
v -0.073631 0.404139 -0.670480
v 0.034824 -0.140820 -0.645105
v -0.053462 -0.400902 -0.630081
v -0.053462 -0.400902 0.630081
v -0.016024 -0.405076 0.328654
v 0.034824 -0.140820 0.645105
v -0.037463 0.394582 0.329115
v 0.064736 0.147959 0.328968
v 0.072583 -0.144736 0.328799
v -0.016024 -0.405076 -0.328654
v 0.027441 0.153845 0.659892
v -0.073631 0.404139 0.670480
v 0.064736 0.147959 -0.328968
v -0.037463 0.394582 -0.329115
v 0.072583 -0.144736 -0.328799
v 0.027441 0.153845 -0.659892
v -0.073631 0.404139 -0.670480
v 0.034824 -0.140820 -0.645105
v -0.053462 -0.400902 -0.630081
v -0.058598 0.426702 0.310193
v 0.010827 0.164396 0.621951
v 0.018723 -0.156673 0.608014
v -0.097286 0.437116 0.631931
v -0.075712 -0.440059 0.593854
v -0.035666 -0.444607 0.309757
v 0.050719 0.157982 0.310054
v 0.059113 -0.160939 0.309895
v -0.097286 0.437116 -0.631931
v -0.075712 -0.440059 -0.593854
v 0.010827 0.164396 -0.621951
v 0.018723 -0.156673 -0.608014
v -0.035666 -0.444607 -0.309757
v -0.058598 0.426702 -0.310193
v 0.059113 -0.160939 -0.309895
v 0.050719 0.157982 -0.310054
v -0.032322 -0.436823 0.593854
v 0.007724 -0.441371 0.309757
v 0.062113 -0.153437 0.608014
v -0.015208 0.429938 0.310193
v 0.054217 0.167631 0.621951
v -0.053896 0.440351 0.631931
v -0.015208 0.429938 -0.310193
v 0.007724 -0.441371 -0.309757
v 0.054217 0.167631 -0.621951
v -0.053896 0.440351 -0.631931
v 0.062113 -0.153437 -0.608014
v -0.032322 -0.436823 -0.593854
v -0.032322 -0.436823 0.593854
v 0.007724 -0.441371 0.309757
v 0.062113 -0.153437 0.608014
v -0.015208 0.429938 0.310193
v 0.094109 0.161218 0.310054
v 0.102503 -0.157704 0.309895
v 0.007724 -0.441371 -0.309757
v 0.054217 0.167631 0.621951
v -0.053896 0.440351 0.631931
v 0.094109 0.161218 -0.310054
v -0.015208 0.429938 -0.310193
v 0.102503 -0.157704 -0.309895
v 0.054217 0.167631 -0.621951
v -0.053896 0.440351 -0.631931
v 0.062113 -0.153437 -0.608014
v -0.032322 -0.436823 -0.593854
v -0.018284 0.460773 0.209015
v 0.051140 0.177522 0.419085
v 0.059037 -0.169182 0.409694
v -0.056972 0.472018 0.425809
v -0.035399 -0.475195 0.400152
v 0.004648 -0.480106 0.208722
v 0.091033 0.170597 0.208922
v 0.099427 -0.173789 0.208814
v -0.056972 0.472018 -0.425809
v -0.035398 -0.475195 -0.400152
v 0.051140 0.177522 -0.419085
v 0.059037 -0.169182 -0.409694
v 0.004648 -0.480106 -0.208722
v -0.018284 0.460773 -0.209015
v 0.099427 -0.173789 -0.208814
v 0.091033 0.170597 -0.208922
v 0.007991 -0.471701 0.400152
v 0.048038 -0.476612 0.208722
v 0.102427 -0.165688 0.409694
v 0.025106 0.464267 0.209015
v 0.094530 0.181016 0.419085
v -0.013582 0.475512 0.425809
v 0.025106 0.464267 -0.209015
v 0.048038 -0.476612 -0.208722
v 0.094530 0.181016 -0.419085
v -0.013582 0.475512 -0.425809
v 0.102427 -0.165688 -0.409694
v 0.007992 -0.471701 -0.400152
v 0.007991 -0.471701 0.400152
v 0.048038 -0.476612 0.208722
v 0.102427 -0.165688 0.409694
v 0.025106 0.464267 0.209015
v 0.134423 0.174091 0.208922
v 0.142817 -0.170295 0.208814
v 0.048038 -0.476612 -0.208722
v 0.094530 0.181016 0.419085
v -0.013582 0.475512 0.425809
v 0.134423 0.174091 -0.208922
v 0.025106 0.464267 -0.209015
v 0.142817 -0.170295 -0.208814
v 0.094530 0.181016 -0.419085
v -0.013582 0.475512 -0.425809
v 0.102427 -0.165688 -0.409694
v 0.007992 -0.471701 -0.400152
vt 1.000000 1.000000
vt 1.002229 1.000000
vt 0.744506 1.000000
vt 0.744156 1.000000
vt 0.997593 1.000000
vt 0.744341 1.000000
vt 1.000000 1.000000
vt 0.744156 1.000000
vt 0.744156 1.000000
vt 0.744156 1.000000
vt 0.744156 1.000000
vt 0.744506 1.000000
vt 1.000000 1.000000
vt 0.997593 1.000000
vt 0.744341 1.000000
vt 0.744156 1.000000
vt 1.002230 1.000000
vt 1.000000 1.000000
vt 1.000000 1.000000
vt 0.744156 1.000000
vt 0.744156 1.000000
vt 1.000000 1.000000
vt 1.000000 1.000000
vt 0.744156 1.000000
vt 1.000000 1.000000
vt 0.744156 1.000000
vt 1.000000 1.000000
vt 1.000000 1.000000
vt 0.744156 1.000000
vt 0.997593 1.000000
vt 0.997593 1.000000
vt 0.997593 1.000000
vt 0.997593 1.000000
vt 1.002230 1.000000
vt 1.002230 1.000000
vt 1.000000 1.000000
vt 1.002229 1.000000
vt 0.744156 1.000000
vt 1.000000 1.000000
vt 1.002229 1.000000
vt 0.744506 1.000000
vt 0.744341 1.000000
vt 0.744341 1.000000
vt 0.744506 1.000000
vt 1.000000 1.000000
vt 1.002229 1.000000
vt 0.744506 1.000000
vt 0.744156 1.000000
vt 0.997593 1.000000
vt 0.744341 1.000000
vt 1.000000 1.000000
vt 0.744156 1.000000
vt 0.744156 1.000000
vt 0.744156 1.000000
vt 0.744156 1.000000
vt 0.744506 1.000000
vt 1.000000 1.000000
vt 0.997593 1.000000
vt 0.744341 1.000000
vt 0.744156 1.000000
vt 1.002230 1.000000
vt 1.000000 1.000000
vt 1.000000 1.000000
vt 0.744156 1.000000
vt 0.744156 1.000000
vt 1.000000 1.000000
vt 1.000000 1.000000
vt 0.744156 1.000000
vt 1.000000 1.000000
vt 0.744156 1.000000
vt 1.000000 1.000000
vt 1.000000 1.000000
vt 0.744156 1.000000
vt 0.997593 1.000000
vt 0.997593 1.000000
vt 0.997593 1.000000
vt 0.997593 1.000000
vt 1.002230 1.000000
vt 1.002230 1.000000
vt 1.000000 1.000000
vt 1.002229 1.000000
vt 0.744156 1.000000
vt 1.000000 1.000000
vt 1.002229 1.000000
vt 0.744506 1.000000
vt 0.744341 1.000000
vt 0.744341 1.000000
vt 0.744506 1.000000
vt 1.000000 1.000000
vt 1.002229 1.000000
vt 0.744506 1.000000
vt 0.744156 1.000000
vt 0.997593 1.000000
vt 0.744341 1.000000
vt 1.000000 1.000000
vt 0.744156 1.000000
vt 0.744156 1.000000
vt 0.744156 1.000000
vt 0.744156 1.000000
vt 0.744506 1.000000
vt 1.000000 1.000000
vt 0.997593 1.000000
vt 0.744341 1.000000
vt 0.744156 1.000000
vt 1.002230 1.000000
vt 1.000000 1.000000
vt 1.000000 1.000000
vt 0.744156 1.000000
vt 0.744156 1.000000
vt 1.000000 1.000000
vt 1.000000 1.000000
vt 0.744156 1.000000
vt 1.000000 1.000000
vt 0.744156 1.000000
vt 1.000000 1.000000
vt 1.000000 1.000000
vt 0.744156 1.000000
vt 0.997593 1.000000
vt 0.997593 1.000000
vt 0.997593 1.000000
vt 0.997593 1.000000
vt 1.002230 1.000000
vt 1.002230 1.000000
vt 1.000000 1.000000
vt 1.002229 1.000000
vt 0.744156 1.000000
vt 1.000000 1.000000
vt 1.002229 1.000000
vt 0.744506 1.000000
vt 0.744341 1.000000
vt 0.744341 1.000000
vt 0.744506 1.000000
vt 1.000000 1.000000
vt 1.002229 1.000000
vt 0.744506 1.000000
vt 0.744156 1.000000
vt 0.997593 1.000000
vt 0.744341 1.000000
vt 1.000000 1.000000
vt 0.744156 1.000000
vt 0.744156 1.000000
vt 0.744156 1.000000
vt 0.744156 1.000000
vt 0.744506 1.000000
vt 1.000000 1.000000
vt 0.997593 1.000000
vt 0.744341 1.000000
vt 0.744156 1.000000
vt 1.002230 1.000000
vt 1.000000 1.000000
vt 1.000000 1.000000
vt 0.744156 1.000000
vt 0.744156 1.000000
vt 1.000000 1.000000
vt 1.000000 1.000000
vt 0.744156 1.000000
vt 1.000000 1.000000
vt 0.744156 1.000000
vt 1.000000 1.000000
vt 1.000000 1.000000
vt 0.744156 1.000000
vt 0.997593 1.000000
vt 0.997593 1.000000
vt 0.997593 1.000000
vt 0.997593 1.000000
vt 1.002230 1.000000
vt 1.002230 1.000000
vt 1.000000 1.000000
vt 1.002229 1.000000
vt 0.744156 1.000000
vt 1.000000 1.000000
vt 1.002229 1.000000
vt 0.744506 1.000000
vt 0.744341 1.000000
vt 0.744341 1.000000
vt 0.744506 1.000000
vn -0.9533 0.2908 -0.0816
vn -0.9967 -0.0203 -0.0782
vn -0.9386 -0.3391 -0.0636
vn 0.0822 -0.9966 0.0000
vn -0.9572 0.2893 0.0000
vn -0.9386 -0.3391 0.0636
vn -0.9967 -0.0203 0.0782
vn -0.9533 0.2908 0.0816
vn 0.0000 0.0000 1.0000
vn 0.0821 -0.9965 -0.0175
vn 0.0821 -0.9965 0.0175
vn 0.0044 -0.0537 0.9985
vn 0.0044 -0.0537 -0.9985
vn -0.0821 0.9963 -0.0272
vn -0.0821 0.9963 0.0272
vn 0.0054 -0.0654 -0.9978
vn 0.0054 -0.0654 0.9978
vn 0.0064 -0.0773 0.9970
vn 0.0064 -0.0773 -0.9970
vn -0.9385 -0.3453 0.0000
vn -0.0822 0.9966 0.0000
vn -0.9997 -0.0238 0.0000
vn 0.9533 -0.2908 0.0816
vn 0.9967 0.0203 0.0782
vn 0.9386 0.3391 0.0636
vn 0.9386 0.3391 -0.0636
vn 0.9967 0.0203 -0.0782
vn 0.9533 -0.2908 -0.0816
vn 0.9572 -0.2893 -0.0000
vn 0.9997 0.0238 -0.0000
vn 0.9385 0.3453 -0.0000
vn -0.9391 0.3226 -0.1185
vn -0.9931 -0.0228 -0.1148
vn -0.9223 -0.3753 -0.0922
vn 0.0730 -0.9973 0.0000
vn -0.9467 0.3222 0.0000
vn -0.9223 -0.3753 0.0922
vn -0.9931 -0.0228 0.1148
vn -0.9391 0.3226 0.1185
vn 0.0730 -0.9971 -0.0229
vn 0.0730 -0.9971 0.0229
vn 0.0030 -0.0411 0.9992
vn 0.0030 -0.0411 -0.9992
vn -0.0730 0.9967 -0.0356
vn -0.0730 0.9967 0.0356
vn 0.0037 -0.0500 -0.9987
vn 0.0037 -0.0500 0.9987
vn 0.0043 -0.0591 0.9982
vn 0.0043 -0.0591 -0.9982
vn -0.9238 -0.3828 0.0000
vn -0.0730 0.9973 0.0000
vn -0.9996 -0.0268 0.0000
vn 0.9391 -0.3226 0.1185
vn 0.9931 0.0228 0.1148
vn 0.9223 0.3753 0.0922
vn 0.9223 0.3753 -0.0922
vn 0.9931 0.0228 -0.1148
vn 0.9391 -0.3226 -0.1185
vn 0.9467 -0.3222 -0.0000
vn 0.9996 0.0268 -0.0000
vn 0.9238 0.3828 -0.0000
vn -0.9389 0.3167 -0.1345
vn -0.9913 -0.0224 -0.1301
vn -0.9235 -0.3689 -0.1047
vn 0.0744 -0.9972 0.0000
vn -0.9485 0.3169 0.0000
vn -0.9235 -0.3689 0.1047
vn -0.9913 -0.0224 0.1301
vn -0.9389 0.3167 0.1345
vn 0.0743 -0.9969 -0.0264
vn 0.0743 -0.9969 0.0264
vn 0.0026 -0.0355 0.9994
vn 0.0026 -0.0355 -0.9994
vn -0.0743 0.9964 -0.0412
vn -0.0743 0.9964 0.0412
vn 0.0032 -0.0433 -0.9991
vn 0.0032 -0.0433 0.9991
vn 0.0038 -0.0512 0.9987
vn 0.0038 -0.0512 -0.9987
vn -0.9263 -0.3768 0.0000
vn -0.0744 0.9972 0.0000
vn -0.9997 -0.0263 0.0000
vn 0.9389 -0.3167 0.1345
vn 0.9913 0.0224 0.1301
vn 0.9235 0.3689 0.1047
vn 0.9235 0.3689 -0.1047
vn 0.9913 0.0224 -0.1301
vn 0.9389 -0.3167 -0.1345
vn 0.9485 -0.3169 -0.0000
vn 0.9997 0.0263 -0.0000
vn 0.9263 0.3768 -0.0000
vn -0.9355 0.2922 -0.1989
vn -0.9814 -0.0205 -0.1911
vn -0.9264 -0.3427 -0.1559
vn 0.0803 -0.9968 -0.0000
vn -0.9553 0.2956 0.0000
vn -0.9264 -0.3427 0.1559
vn -0.9814 -0.0205 0.1911
vn -0.9355 0.2922 0.1989
vn 0.0802 -0.9959 -0.0423
vn 0.0802 -0.9959 0.0423
vn 0.0018 -0.0222 0.9998
vn 0.0018 -0.0222 -0.9998
vn -0.0801 0.9946 -0.0659
vn -0.0801 0.9946 0.0659
vn 0.0022 -0.0270 -0.9996
vn 0.0022 -0.0270 0.9996
vn 0.0026 -0.0320 0.9995
vn 0.0026 -0.0320 -0.9995
vn -0.9358 -0.3525 0.0000
vn -0.0803 0.9968 0.0000
vn -0.9997 -0.0244 0.0000
vn 0.9355 -0.2922 0.1989
vn 0.9814 0.0205 0.1911
vn 0.9264 0.3427 0.1559
vn 0.9264 0.3427 -0.1559
vn 0.9814 0.0205 -0.1911
vn 0.9355 -0.2922 -0.1989
vn 0.9553 -0.2956 -0.0000
vn 0.9997 0.0244 -0.0000
vn 0.9358 0.3525 -0.0000
g Plane.021_Plane.054_Metalik.014
s off
f 5/1/1 3/2/1 8/3/1 6/4/1
f 3/2/2 2/5/2 7/6/2 8/3/2
f 2/5/3 4/7/3 1/8/3 7/6/3
f 13/9/4 24/10/4 18/11/4 6/4/4
f 8/3/5 15/12/5 13/9/5 6/4/5
f 9/13/6 11/14/6 16/15/6 14/16/6
f 11/14/7 12/17/7 15/12/7 16/15/7
f 12/17/8 10/18/8 13/9/8 15/12/8
f 26/19/9 23/20/9 39/21/9 42/22/9
f 17/23/9 18/11/9 30/24/9 29/25/9
f 20/26/9 22/27/9 37/28/9 32/29/9
f 25/30/9 26/19/9 42/22/9 41/31/9
f 22/27/9 21/32/9 36/33/9 37/28/9
f 27/34/9 25/30/9 41/31/9 43/35/9
f 13/9/10 10/18/10 28/36/10 24/10/10
f 5/1/11 6/4/11 18/11/11 17/23/11
f 4/7/12 2/5/12 21/32/12 22/27/12
f 11/14/13 9/13/13 26/19/13 25/30/13
f 1/8/14 4/7/14 22/27/14 20/26/14
f 9/13/15 14/16/15 23/20/15 26/19/15
f 12/17/16 11/14/16 25/30/16 27/34/16
f 2/5/17 3/2/17 19/37/17 21/32/17
f 3/2/18 5/1/18 17/23/18 19/37/18
f 10/18/19 12/17/19 27/34/19 28/36/19
f 1/8/20 14/16/20 16/15/20 7/6/20
f 18/11/9 24/10/9 35/38/9 30/24/9
f 1/8/21 20/26/21 23/20/21 14/16/21
f 16/15/22 15/12/22 8/3/22 7/6/22
f 24/10/9 28/36/9 44/39/9 35/38/9
f 19/37/9 17/23/9 29/25/9 31/40/9
f 29/25/23 30/24/23 34/41/23 31/40/23
f 31/40/24 34/41/24 33/42/24 36/33/24
f 36/33/25 33/42/25 32/29/25 37/28/25
f 42/22/26 39/21/26 38/43/26 41/31/26
f 41/31/27 38/43/27 40/44/27 43/35/27
f 43/35/28 40/44/28 35/38/28 44/39/28
f 35/38/29 40/44/29 34/41/29 30/24/29
f 33/42/30 34/41/30 40/44/30 38/43/30
f 32/29/31 33/42/31 38/43/31 39/21/31
f 21/32/9 19/37/9 31/40/9 36/33/9
f 23/20/9 20/26/9 32/29/9 39/21/9
f 28/36/9 27/34/9 43/35/9 44/39/9
f 49/45/32 47/46/32 52/47/32 50/48/32
f 47/46/33 46/49/33 51/50/33 52/47/33
f 46/49/34 48/51/34 45/52/34 51/50/34
f 57/53/35 68/54/35 62/55/35 50/48/35
f 52/47/36 59/56/36 57/53/36 50/48/36
f 53/57/37 55/58/37 60/59/37 58/60/37
f 55/58/38 56/61/38 59/56/38 60/59/38
f 56/61/39 54/62/39 57/53/39 59/56/39
f 70/63/9 67/64/9 83/65/9 86/66/9
f 61/67/9 62/55/9 74/68/9 73/69/9
f 64/70/9 66/71/9 81/72/9 76/73/9
f 69/74/9 70/63/9 86/66/9 85/75/9
f 66/71/9 65/76/9 80/77/9 81/72/9
f 71/78/9 69/74/9 85/75/9 87/79/9
f 57/53/40 54/62/40 72/80/40 68/54/40
f 49/45/41 50/48/41 62/55/41 61/67/41
f 48/51/42 46/49/42 65/76/42 66/71/42
f 55/58/43 53/57/43 70/63/43 69/74/43
f 45/52/44 48/51/44 66/71/44 64/70/44
f 53/57/45 58/60/45 67/64/45 70/63/45
f 56/61/46 55/58/46 69/74/46 71/78/46
f 46/49/47 47/46/47 63/81/47 65/76/47
f 47/46/48 49/45/48 61/67/48 63/81/48
f 54/62/49 56/61/49 71/78/49 72/80/49
f 45/52/50 58/60/50 60/59/50 51/50/50
f 62/55/9 68/54/9 79/82/9 74/68/9
f 45/52/51 64/70/51 67/64/51 58/60/51
f 60/59/52 59/56/52 52/47/52 51/50/52
f 68/54/9 72/80/9 88/83/9 79/82/9
f 63/81/9 61/67/9 73/69/9 75/84/9
f 73/69/53 74/68/53 78/85/53 75/84/53
f 75/84/54 78/85/54 77/86/54 80/77/54
f 80/77/55 77/86/55 76/73/55 81/72/55
f 86/66/56 83/65/56 82/87/56 85/75/56
f 85/75/57 82/87/57 84/88/57 87/79/57
f 87/79/58 84/88/58 79/82/58 88/83/58
f 79/82/59 84/88/59 78/85/59 74/68/59
f 77/86/60 78/85/60 84/88/60 82/87/60
f 76/73/61 77/86/61 82/87/61 83/65/61
f 65/76/9 63/81/9 75/84/9 80/77/9
f 67/64/9 64/70/9 76/73/9 83/65/9
f 72/80/9 71/78/9 87/79/9 88/83/9
f 93/89/62 91/90/62 96/91/62 94/92/62
f 91/90/63 90/93/63 95/94/63 96/91/63
f 90/93/64 92/95/64 89/96/64 95/94/64
f 101/97/65 112/98/65 106/99/65 94/92/65
f 96/91/66 103/100/66 101/97/66 94/92/66
f 97/101/67 99/102/67 104/103/67 102/104/67
f 99/102/68 100/105/68 103/100/68 104/103/68
f 100/105/69 98/106/69 101/97/69 103/100/69
f 114/107/9 111/108/9 127/109/9 130/110/9
f 105/111/9 106/99/9 118/112/9 117/113/9
f 108/114/9 110/115/9 125/116/9 120/117/9
f 113/118/9 114/107/9 130/110/9 129/119/9
f 110/115/9 109/120/9 124/121/9 125/116/9
f 115/122/9 113/118/9 129/119/9 131/123/9
f 101/97/70 98/106/70 116/124/70 112/98/70
f 93/89/71 94/92/71 106/99/71 105/111/71
f 92/95/72 90/93/72 109/120/72 110/115/72
f 99/102/73 97/101/73 114/107/73 113/118/73
f 89/96/74 92/95/74 110/115/74 108/114/74
f 97/101/75 102/104/75 111/108/75 114/107/75
f 100/105/76 99/102/76 113/118/76 115/122/76
f 90/93/77 91/90/77 107/125/77 109/120/77
f 91/90/78 93/89/78 105/111/78 107/125/78
f 98/106/79 100/105/79 115/122/79 116/124/79
f 89/96/80 102/104/80 104/103/80 95/94/80
f 106/99/9 112/98/9 123/126/9 118/112/9
f 89/96/81 108/114/81 111/108/81 102/104/81
f 104/103/82 103/100/82 96/91/82 95/94/82
f 112/98/9 116/124/9 132/127/9 123/126/9
f 107/125/9 105/111/9 117/113/9 119/128/9
f 117/113/83 118/112/83 122/129/83 119/128/83
f 119/128/84 122/129/84 121/130/84 124/121/84
f 124/121/85 121/130/85 120/117/85 125/116/85
f 130/110/86 127/109/86 126/131/86 129/119/86
f 129/119/87 126/131/87 128/132/87 131/123/87
f 131/123/88 128/132/88 123/126/88 132/127/88
f 123/126/89 128/132/89 122/129/89 118/112/89
f 121/130/90 122/129/90 128/132/90 126/131/90
f 120/117/91 121/130/91 126/131/91 127/109/91
f 109/120/9 107/125/9 119/128/9 124/121/9
f 111/108/9 108/114/9 120/117/9 127/109/9
f 116/124/9 115/122/9 131/123/9 132/127/9
f 137/133/92 135/134/92 140/135/92 138/136/92
f 135/134/93 134/137/93 139/138/93 140/135/93
f 134/137/94 136/139/94 133/140/94 139/138/94
f 145/141/95 156/142/95 150/143/95 138/136/95
f 140/135/96 147/144/96 145/141/96 138/136/96
f 141/145/97 143/146/97 148/147/97 146/148/97
f 143/146/98 144/149/98 147/144/98 148/147/98
f 144/149/99 142/150/99 145/141/99 147/144/99
f 158/151/9 155/152/9 171/153/9 174/154/9
f 149/155/9 150/143/9 162/156/9 161/157/9
f 152/158/9 154/159/9 169/160/9 164/161/9
f 157/162/9 158/151/9 174/154/9 173/163/9
f 154/159/9 153/164/9 168/165/9 169/160/9
f 159/166/9 157/162/9 173/163/9 175/167/9
f 145/141/100 142/150/100 160/168/100 156/142/100
f 137/133/101 138/136/101 150/143/101 149/155/101
f 136/139/102 134/137/102 153/164/102 154/159/102
f 143/146/103 141/145/103 158/151/103 157/162/103
f 133/140/104 136/139/104 154/159/104 152/158/104
f 141/145/105 146/148/105 155/152/105 158/151/105
f 144/149/106 143/146/106 157/162/106 159/166/106
f 134/137/107 135/134/107 151/169/107 153/164/107
f 135/134/108 137/133/108 149/155/108 151/169/108
f 142/150/109 144/149/109 159/166/109 160/168/109
f 133/140/110 146/148/110 148/147/110 139/138/110
f 150/143/9 156/142/9 167/170/9 162/156/9
f 133/140/111 152/158/111 155/152/111 146/148/111
f 148/147/112 147/144/112 140/135/112 139/138/112
f 156/142/9 160/168/9 176/171/9 167/170/9
f 151/169/9 149/155/9 161/157/9 163/172/9
f 161/157/113 162/156/113 166/173/113 163/172/113
f 163/172/114 166/173/114 165/174/114 168/165/114
f 168/165/115 165/174/115 164/161/115 169/160/115
f 174/154/116 171/153/116 170/175/116 173/163/116
f 173/163/117 170/175/117 172/176/117 175/167/117
f 175/167/118 172/176/118 167/170/118 176/171/118
f 167/170/119 172/176/119 166/173/119 162/156/119
f 165/174/120 166/173/120 172/176/120 170/175/120
f 164/161/121 165/174/121 170/175/121 171/153/121
f 153/164/9 151/169/9 163/172/9 168/165/9
f 155/152/9 152/158/9 164/161/9 171/153/9
f 160/168/9 159/166/9 175/167/9 176/171/9
