# Blender v3.0.1 OBJ File: 'Car for Dead rase.blend'
# www.blender.org
o Cylinder.007_Cylinder.073
v -0.012477 0.000000 -0.026254
v -0.012477 0.018564 -0.018564
v -0.012477 0.026254 -0.000000
v -0.012477 0.018564 0.018564
v -0.012477 0.000000 0.026254
v -0.012477 -0.018564 0.018564
v -0.012477 -0.026254 -0.000000
v -0.012477 -0.018564 -0.018564
v -0.056969 0.000000 -0.040076
v -0.056969 0.028338 -0.028338
v -0.056969 0.040076 -0.000000
v -0.056969 0.028338 0.028338
v -0.056969 0.000000 0.040076
v -0.056969 -0.028338 0.028338
v -0.056969 -0.040076 -0.000000
v -0.056969 -0.028338 -0.028338
v -0.119140 0.000000 -0.040076
v -0.119140 0.028338 -0.028338
v -0.119140 0.040076 -0.000000
v -0.119140 0.028338 0.028338
v -0.119140 0.000000 0.040076
v -0.119140 -0.028338 0.028338
v -0.119140 -0.040076 -0.000000
v -0.119140 -0.028338 -0.028338
v -0.262166 0.000000 -0.004339
v -0.262166 0.003068 -0.003068
v -0.262166 0.004339 -0.000000
v -0.262166 0.003068 0.003068
v -0.262166 0.000000 0.004339
v -0.262166 -0.003068 0.003068
v -0.262166 -0.004339 -0.000000
v -0.262166 -0.003068 -0.003068
v 0.003050 0.000000 -0.017952
v 0.003050 0.012694 -0.012694
v 0.003050 0.017952 -0.000000
v 0.003050 0.012694 0.012694
v 0.003050 0.000000 0.017952
v 0.003050 -0.012694 0.012694
v 0.003050 -0.017952 -0.000000
v 0.003050 -0.012694 -0.012694
v 0.086398 -0.000000 -0.017952
v 0.086398 0.012694 -0.012694
v 0.086398 0.017952 -0.000000
v 0.086398 0.012694 0.012694
v 0.086398 -0.000000 0.017952
v 0.086398 -0.012694 0.012694
v 0.086398 -0.017952 -0.000000
v 0.086398 -0.012694 -0.012694
v 0.515009 -0.000000 -0.017952
v 0.515009 0.012694 -0.012694
v 0.515009 0.017952 -0.000000
v 0.515009 0.012694 0.012694
v 0.515009 -0.000000 0.017952
v 0.515009 -0.012694 0.012694
v 0.515009 -0.017953 -0.000000
v 0.515009 -0.012694 -0.012694
v 0.042273 0.012694 -0.012694
v 0.042273 0.000000 -0.017952
v 0.042273 0.000000 0.017952
v 0.042273 -0.012694 -0.012694
v 0.042273 0.012694 0.012694
v 0.042273 -0.017952 -0.000000
v 0.042273 0.017952 -0.000000
v 0.042273 -0.012694 0.012694
v -0.277981 0.000000 -0.004339
v -0.277981 0.003068 -0.003068
v -0.277981 0.004339 -0.000000
v -0.277981 0.003068 0.003068
v -0.277981 0.000000 0.004339
v -0.277981 -0.003068 0.003068
v -0.277981 -0.004339 -0.000000
v -0.277981 -0.003068 -0.003068
v 0.015944 -0.013809 -0.000341
v 0.015944 -0.010407 0.009083
v 0.015944 0.010407 -0.009083
v 0.015944 0.013809 0.000341
v 0.066060 -0.023344 0.003507
v 0.066060 -0.020202 0.012213
v 0.066060 0.020202 -0.012213
v 0.066060 0.023344 -0.003507
v 0.015944 -0.000341 0.013809
v 0.015944 0.009083 0.010407
v 0.015944 -0.009083 -0.010407
v 0.015944 0.000341 -0.013809
v 0.066060 0.003507 0.023344
v 0.066060 0.012213 0.020202
v 0.066060 -0.012213 -0.020202
v 0.066060 -0.003507 -0.023344
vt 0.080294 0.080294
vt 0.010000 0.250000
vt 0.010000 0.250000
vt 0.080294 0.080294
vt 0.490000 0.250000
vt 0.419706 0.080294
vt 0.419706 0.080294
vt 0.490000 0.250000
vt 0.080294 0.080294
vt 0.010000 0.250000
vt 0.080294 0.419706
vt 0.080294 0.419706
vt 0.250000 0.010000
vt 0.250000 0.010000
vt 0.250000 0.490000
vt 0.250000 0.490000
vt 0.419706 0.419706
vt 0.419706 0.419706
vt 0.419706 0.419706
vt 0.419706 0.419706
vt 0.490000 0.250000
vt 0.490000 0.250000
vt 0.419706 0.080294
vt 0.250000 0.010000
vt 0.250000 0.010000
vt 0.419706 0.080294
vt 0.080294 0.080294
vt 0.080294 0.080294
vt 0.010000 0.250000
vt 0.010000 0.250000
vt 0.080294 0.419706
vt 0.250000 0.490000
vt 0.250000 0.490000
vt 0.080294 0.419706
vt 0.419706 0.419706
vt 0.490000 0.250000
vt 0.490000 0.250000
vt 0.419706 0.419706
vt 0.419706 0.080294
vt 0.080294 0.419706
vt 0.250000 0.010000
vt 0.250000 0.490000
vt 0.080294 0.080294
vt 0.010000 0.250000
vt 0.250000 0.490000
vt 0.080294 0.419706
vt 0.250000 0.010000
vt 0.419706 0.080294
vt 0.490000 0.250000
vt 0.419706 0.419706
vt 0.010000 0.250000
vt 0.010000 0.250000
vt 0.080294 0.080294
vt 0.080294 0.080294
vt 0.080294 0.419706
vt 0.250000 0.490000
vt 0.250000 0.490000
vt 0.080294 0.419706
vt 0.080294 0.419706
vt 0.250000 0.010000
vt 0.250000 0.010000
vt 0.419706 0.080294
vt 0.419706 0.080294
vt 0.250000 0.490000
vt 0.419706 0.419706
vt 0.250000 0.010000
vt 0.419706 0.080294
vt 0.419706 0.419706
vt 0.490000 0.250000
vt 0.080294 0.080294
vt 0.010000 0.250000
vt 0.490000 0.250000
vt 0.375000 0.000000
vt 0.625000 0.000000
vt 0.625000 0.250000
vt 0.375000 0.250000
vt 0.625000 0.500000
vt 0.375000 0.500000
vt 0.625000 0.750000
vt 0.375000 0.750000
vt 0.625000 1.000000
vt 0.375000 1.000000
vt 0.125000 0.500000
vt 0.125000 0.750000
vt 0.875000 0.500000
vt 0.875000 0.750000
vt 0.375000 0.000000
vt 0.625000 0.000000
vt 0.625000 0.250000
vt 0.375000 0.250000
vt 0.625000 0.500000
vt 0.375000 0.500000
vt 0.625000 0.750000
vt 0.375000 0.750000
vt 0.625000 1.000000
vt 0.375000 1.000000
vt 0.125000 0.500000
vt 0.125000 0.750000
vt 0.875000 0.500000
vt 0.875000 0.750000
vn 0.4429 -0.8283 0.3431
vn 0.2759 0.8880 0.3678
vn 0.2759 -0.8880 0.3678
vn 0.2759 -0.8880 -0.3678
vn 0.2759 0.3678 0.8880
vn 0.2759 -0.3678 -0.8880
vn 0.2759 0.3678 -0.8880
vn 0.2759 0.8880 -0.3678
vn -0.2249 0.9002 -0.3729
vn -0.2249 0.3729 0.9002
vn -0.0000 -0.3827 0.9239
vn -0.2249 -0.9002 0.3729
vn -0.2249 -0.3729 -0.9002
vn -0.2249 0.3729 -0.9002
vn 0.0000 0.3827 0.9239
vn -0.2249 -0.3729 0.9002
vn -0.2249 0.9002 0.3729
vn -0.2249 -0.9002 -0.3729
vn -0.0000 0.9239 -0.3827
vn 0.0000 0.3827 -0.9239
vn 0.4429 0.8283 -0.3431
vn 0.0000 0.9239 0.3827
vn -0.0000 -0.9239 -0.3827
vn -0.0000 -0.3827 -0.9239
vn -0.0000 -0.9239 0.3827
vn 0.4429 0.8283 0.3431
vn 0.4429 -0.8283 -0.3431
vn 0.4429 0.3431 0.8283
vn 0.4429 -0.3431 -0.8283
vn 0.4429 0.3431 -0.8283
vn 0.4429 -0.3431 0.8283
vn -1.0000 -0.0000 0.0000
vn 0.2759 -0.3678 0.8880
vn 1.0000 0.0000 0.0000
vn -0.2009 0.9214 -0.3326
vn -0.2009 -0.9214 0.3326
vn 0.0076 -0.3395 -0.9406
vn 0.0076 0.3395 0.9406
vn -0.2009 -0.3326 -0.9214
vn -0.2009 0.3326 0.9214
vn 0.0076 -0.9406 0.3395
vn 0.0076 0.9406 -0.3395
g Cylinder.007_Cylinder.073_metalik_2
s off
f 6/1/1 7/2/1 39/3/1 38/4/1
f 11/5/2 12/6/2 4/7/2 3/8/2
f 14/9/3 15/10/3 7/2/3 6/1/3
f 15/10/4 16/11/4 8/12/4 7/2/4
f 12/6/5 13/13/5 5/14/5 4/7/5
f 16/11/6 9/15/6 1/16/6 8/12/6
f 1/16/7 9/15/7 10/17/7 2/18/7
f 2/18/8 10/17/8 11/5/8 3/8/8
f 18/19/9 26/20/9 27/21/9 19/22/9
f 28/23/10 29/24/10 21/25/10 20/26/10
f 13/13/11 21/25/11 22/27/11 14/9/11
f 30/28/12 31/29/12 23/30/12 22/27/12
f 32/31/13 25/32/13 17/33/13 24/34/13
f 17/33/14 25/32/14 26/20/14 18/19/14
f 20/26/15 21/25/15 13/13/15 12/6/15
f 29/24/16 30/28/16 22/27/16 21/25/16
f 27/21/17 28/23/17 20/26/17 19/22/17
f 23/30/18 31/29/18 32/31/18 24/34/18
f 26/20/19 66/35/19 67/36/19 27/21/19
f 17/33/20 18/19/20 10/17/20 9/15/20
f 2/18/21 3/8/21 35/37/21 34/38/21
f 10/17/19 18/19/19 19/22/19 11/5/19
f 11/5/22 19/22/22 20/26/22 12/6/22
f 23/30/23 24/34/23 16/11/23 15/10/23
f 24/34/24 17/33/24 9/15/24 16/11/24
f 14/9/25 22/27/25 23/30/25 15/10/25
f 3/8/26 4/7/26 36/39/26 35/37/26
f 7/2/27 8/12/27 40/40/27 39/3/27
f 4/7/28 5/14/28 37/41/28 36/39/28
f 8/12/29 1/16/29 33/42/29 40/40/29
f 1/16/30 2/18/30 34/38/30 33/42/30
f 5/14/31 6/1/31 38/4/31 37/41/31
f 31/29/25 30/28/25 70/43/25 71/44/25
f 65/45/32 72/46/32 71/44/32 70/43/32 69/47/32 68/48/32 67/36/32 66/35/32
f 28/23/22 27/21/22 67/36/22 68/48/22
f 32/31/23 31/29/23 71/44/23 72/46/23
f 29/24/15 28/23/15 68/48/15 69/47/15
f 25/32/24 32/31/24 72/46/24 65/45/24
f 26/20/20 25/32/20 65/45/20 66/35/20
f 30/28/11 29/24/11 69/47/11 70/43/11
f 6/1/33 5/14/33 13/13/33 14/9/33
g Cylinder.007_Cylinder.073_Black
f 34/38/19 35/37/19 63/49/19 57/50/19
f 62/51/25 47/52/25 46/53/25 64/54/25
f 48/55/24 41/56/24 49/57/24 56/58/24
f 38/4/25 39/3/25 62/51/25 64/54/25
f 60/59/23 48/55/23 47/52/23 62/51/23
f 59/60/15 45/61/15 44/62/15 61/63/15
f 60/59/24 58/64/24 41/56/24 48/55/24
f 58/64/20 57/50/20 42/65/20 41/56/20
f 59/60/11 64/54/11 46/53/11 45/61/11
f 44/62/15 45/61/15 53/66/15 52/67/15
f 49/57/34 50/68/34 51/69/34 52/67/34 53/66/34 54/70/34 55/71/34 56/58/34
f 41/56/20 42/65/20 50/68/20 49/57/20
f 45/61/11 46/53/11 54/70/11 53/66/11
f 42/65/19 43/72/19 51/69/19 50/68/19
f 46/53/25 47/52/25 55/71/25 54/70/25
f 43/72/22 44/62/22 52/67/22 51/69/22
f 47/52/23 48/55/23 56/58/23 55/71/23
f 37/41/11 38/4/11 64/54/11 59/60/11
f 36/39/15 37/41/15 59/60/15 61/63/15
f 39/3/23 40/40/23 60/59/23 62/51/23
f 40/40/24 33/42/24 58/64/24 60/59/24
f 33/42/20 34/38/20 57/50/20 58/64/20
f 61/63/22 44/62/22 43/72/22 63/49/22
f 35/37/22 36/39/22 61/63/22 63/49/22
f 57/50/19 63/49/19 43/72/19 42/65/19
f 73/73/32 74/74/32 76/75/32 75/76/32
f 75/76/35 76/75/35 80/77/35 79/78/35
f 79/78/34 80/77/34 78/79/34 77/80/34
f 77/80/36 78/79/36 74/81/36 73/82/36
f 75/83/37 79/78/37 77/80/37 73/84/37
f 80/77/38 76/85/38 74/86/38 78/79/38
f 81/87/32 82/88/32 84/89/32 83/90/32
f 83/90/39 84/89/39 88/91/39 87/92/39
f 87/92/34 88/91/34 86/93/34 85/94/34
f 85/94/40 86/93/40 82/95/40 81/96/40
f 83/97/41 87/92/41 85/94/41 81/98/41
f 88/91/42 84/99/42 82/100/42 86/93/42
