# Blender v3.0.1 OBJ File: 'Home for Dead rase.blend'
# www.blender.org
o Cube.012_Cube.016
v -0.216013 -0.737144 1.118688
v -0.216013 5.034332 1.118688
v -0.216013 -0.737144 0.722474
v -0.216013 5.034332 0.722474
v 0.216013 -0.737144 1.118688
v 0.216013 5.034332 1.118688
v 0.216013 -0.737144 0.722474
v 0.216013 5.034332 0.722474
v -0.216013 -0.737144 -1.118688
v -0.216013 5.034332 -1.118688
v -0.216013 -0.737144 -0.722474
v -0.216013 5.034332 -0.722474
v 0.216013 -0.737144 -1.118688
v 0.216013 5.034332 -1.118688
v 0.216013 -0.737144 -0.722474
v 0.216013 5.034332 -0.722474
vt 0.375000 0.000000
vt 0.625000 0.000000
vt 0.625000 0.250000
vt 0.375000 0.250000
vt 0.625000 0.500000
vt 0.375000 0.500000
vt 0.625000 0.750000
vt 0.375000 0.750000
vt 0.625000 1.000000
vt 0.375000 1.000000
vt 0.125000 0.500000
vt 0.125000 0.750000
vt 0.875000 0.500000
vt 0.875000 0.750000
vt 0.375000 0.000000
vt 0.375000 0.250000
vt 0.625000 0.250000
vt 0.625000 0.000000
vt 0.375000 0.500000
vt 0.625000 0.500000
vt 0.375000 0.750000
vt 0.625000 0.750000
vt 0.375000 1.000000
vt 0.625000 1.000000
vt 0.125000 0.500000
vt 0.125000 0.750000
vt 0.875000 0.750000
vt 0.875000 0.500000
vn -1.0000 0.0000 0.0000
vn 0.0000 0.0000 -1.0000
vn 1.0000 0.0000 0.0000
vn 0.0000 0.0000 1.0000
vn 0.0000 -1.0000 0.0000
vn 0.0000 1.0000 0.0000
g Cube.012_Cube.016_Green
s off
f 1/1/1 2/2/1 4/3/1 3/4/1
f 3/4/2 4/3/2 8/5/2 7/6/2
f 7/6/3 8/5/3 6/7/3 5/8/3
f 5/8/4 6/7/4 2/9/4 1/10/4
f 3/11/5 7/6/5 5/8/5 1/12/5
f 8/5/6 4/13/6 2/14/6 6/7/6
f 9/15/1 11/16/1 12/17/1 10/18/1
f 11/16/4 15/19/4 16/20/4 12/17/4
f 15/19/3 13/21/3 14/22/3 16/20/3
f 13/21/2 9/23/2 10/24/2 14/22/2
f 11/25/5 9/26/5 13/21/5 15/19/5
f 16/20/6 14/22/6 10/27/6 12/28/6
o Cube.032_Cube.017
v -0.074467 0.386846 -0.003263
v -0.074467 0.500165 0.110057
v -0.074467 0.500165 -0.116582
v -0.074467 0.613485 -0.003263
v 0.074467 0.386846 -0.003263
v 0.074467 0.500165 0.110057
v 0.074467 0.500165 -0.116582
v 0.074467 0.613485 -0.003263
v -0.074467 1.363065 -0.760850
v -0.074467 1.257753 -0.866163
v 0.074467 1.257753 -0.866163
v 0.074467 1.363065 -0.760850
v -0.074467 1.304544 0.906429
v -0.074467 1.409857 0.801117
v 0.074467 1.409857 0.801117
v 0.074467 1.304544 0.906429
v -0.074467 -0.434629 0.826219
v -0.074467 -0.329316 0.931531
v 0.074467 -0.329316 0.931531
v 0.074467 -0.434629 0.826219
v -0.074467 -0.265999 -0.874739
v -0.074467 -0.371312 -0.769427
v 0.074467 -0.265999 -0.874739
v 0.074467 -0.371312 -0.769427
v -0.075229 0.500165 -0.116582
v -0.075229 0.386846 -0.003263
v -0.075229 0.500165 0.110057
v -0.075229 0.613485 -0.003263
v 0.075229 0.613485 -0.003263
v 0.075229 0.500165 -0.116582
v 0.075229 0.386846 -0.003263
v 0.075229 0.500165 0.110057
v -0.075229 0.500165 -0.286126
v -0.075229 0.217302 -0.003263
v -0.075229 0.500165 0.279600
v -0.075229 0.783028 -0.003263
v 0.075229 0.783028 -0.003263
v 0.075229 0.500165 -0.286126
v 0.075229 0.217302 -0.003263
v 0.075229 0.500165 0.279600
v -0.112026 0.500165 -0.286126
v -0.112026 0.217302 -0.003263
v -0.112026 0.500165 0.279600
v -0.112026 0.783028 -0.003263
v 0.112026 0.783028 -0.003263
v 0.112026 0.500165 -0.286126
v 0.112026 0.217302 -0.003263
v 0.112026 0.500165 0.279600
vt 0.375000 0.250000
vt 0.375000 0.000000
vt 0.375000 0.000000
vt 0.375000 0.250000
vt 0.875000 0.500000
vt 0.625000 0.500000
vt 0.625000 0.500000
vt 0.875000 0.500000
vt 0.625000 0.000000
vt 0.625000 0.250000
vt 0.625000 0.250000
vt 0.625000 0.000000
vt 0.625000 0.750000
vt 0.625000 1.000000
vt 0.625000 1.000000
vt 0.625000 0.750000
vt 0.375000 0.250000
vt 0.375000 0.000000
vt 0.625000 0.000000
vt 0.625000 0.250000
vt 0.375000 0.250000
vt 0.625000 0.250000
vt 0.375000 0.500000
vt 0.375000 0.500000
vt 0.125000 0.500000
vt 0.125000 0.500000
vt 0.625000 0.500000
vt 0.875000 0.500000
vt 0.875000 0.750000
vt 0.625000 0.750000
vt 0.625000 1.000000
vt 0.375000 0.750000
vt 0.375000 1.000000
vt 0.375000 0.750000
vt 0.375000 0.000000
vt 0.625000 0.000000
vt 0.125000 0.750000
vt 0.125000 0.750000
vt 0.125000 0.500000
vt 0.375000 0.500000
vt 0.375000 0.750000
vt 0.125000 0.750000
vt 0.375000 0.750000
vt 0.625000 0.750000
vt 0.375000 0.500000
vt 0.625000 0.500000
vt 0.625000 0.500000
vt 0.375000 0.500000
vt 0.625000 0.750000
vt 0.625000 0.000000
vt 0.375000 0.000000
vt 0.375000 0.250000
vt 0.625000 0.250000
vt 0.375000 0.750000
vt 0.375000 0.000000
vt 0.375000 0.250000
vt 0.625000 0.250000
vt 0.625000 0.000000
vt 0.375000 0.500000
vt 0.625000 0.500000
vt 0.625000 0.750000
vt 0.375000 0.750000
vn 0.0000 -0.7071 -0.7071
vn 0.0000 0.7109 0.7033
vn 0.0000 0.7071 0.7071
vn 0.0000 0.7037 0.7105
vn -1.0000 0.0000 0.0000
vn 0.0000 0.7071 -0.7071
vn 1.0000 -0.0000 0.0000
vn 0.0000 -0.7033 -0.7109
vn 0.0000 -0.7036 0.7106
vn 0.0000 0.7106 -0.7036
vn 0.0000 -0.7071 0.7071
vn 0.0000 -0.7105 -0.7037
vn 0.0000 -0.7108 0.7034
vn 0.0000 0.7034 -0.7108
g Cube.032_Cube.017_Green
s off
f 19/29/7 17/30/7 42/31/7 41/32/7
f 20/33/8 24/34/8 28/35/8 25/36/8
f 18/37/9 20/38/9 44/39/9 43/40/9
f 22/41/10 18/42/10 34/43/10 35/44/10
f 17/30/11 19/29/11 37/45/11 38/46/11
f 20/38/11 18/37/11 29/47/11 30/48/11
f 26/49/12 25/50/12 28/35/12 27/51/12
f 19/29/11 20/38/11 25/50/11 26/49/11
f 24/34/13 23/52/13 27/51/13 28/35/13
f 23/52/14 19/53/14 26/54/14 27/51/14
f 31/55/9 30/56/9 29/57/9 32/58/9
f 18/42/15 22/41/15 32/58/15 29/59/15
f 24/34/16 20/33/16 30/56/16 31/55/16
f 22/41/13 24/34/13 31/55/13 32/58/13
f 36/60/17 35/44/17 34/43/17 33/61/17
f 21/62/13 22/41/13 35/44/13 36/60/13
f 18/37/11 17/30/11 33/63/11 34/64/11
f 17/65/18 21/62/18 36/60/18 33/66/18
f 37/67/7 39/68/7 40/69/7 38/70/7
f 23/52/13 21/62/13 40/69/13 39/68/13
f 21/62/19 17/65/19 38/70/19 40/69/19
f 19/53/20 23/52/20 39/68/20 37/67/20
f 22/41/17 21/62/17 47/71/17 48/72/17
f 21/62/7 23/52/7 46/73/7 47/71/7
f 20/38/12 19/29/12 41/32/12 44/39/12
f 17/30/17 18/37/17 43/40/17 42/31/17
f 24/34/9 22/41/9 48/72/9 45/74/9
f 23/52/12 24/34/12 45/74/12 46/73/12
f 46/73/11 45/74/11 53/75/11 54/76/11
f 45/74/11 48/72/11 56/77/11 53/75/11
f 42/31/13 43/40/13 51/78/13 50/79/13
f 44/39/13 41/32/13 49/80/13 52/81/13
f 47/71/11 46/73/11 54/76/11 55/82/11
f 48/72/11 47/71/11 55/82/11 56/77/11
f 41/32/13 42/31/13 50/79/13 49/80/13
f 43/40/13 44/39/13 52/81/13 51/78/13
f 49/80/7 50/79/7 58/83/7 57/84/7
f 51/78/9 52/81/9 60/85/9 59/86/9
f 58/83/11 59/86/11 60/85/11 57/84/11
f 62/87/13 61/88/13 64/89/13 63/90/13
f 56/77/17 55/82/17 63/90/17 64/89/17
f 55/82/7 54/76/7 62/87/7 63/90/7
f 52/81/12 49/80/12 57/84/12 60/85/12
f 50/79/17 51/78/17 59/86/17 58/83/17
f 53/75/9 56/77/9 64/89/9 61/88/9
f 54/76/12 53/75/12 61/88/12 62/87/12
o Cube.033_Cube.024
v -0.074467 2.136450 -0.003263
v -0.074467 2.249769 0.110057
v -0.074467 2.249769 -0.116582
v -0.074467 2.363089 -0.003263
v 0.074467 2.136450 -0.003263
v 0.074467 2.249769 0.110057
v 0.074467 2.249769 -0.116582
v 0.074467 2.363089 -0.003263
v -0.074467 3.112670 -0.760850
v -0.074467 3.007357 -0.866163
v 0.074467 3.007357 -0.866163
v 0.074467 3.112670 -0.760850
v -0.074467 3.054149 0.906429
v -0.074467 3.159461 0.801117
v 0.074467 3.159461 0.801117
v 0.074467 3.054149 0.906429
v -0.074467 1.314976 0.826219
v -0.074467 1.420288 0.931531
v 0.074467 1.420288 0.931531
v 0.074467 1.314976 0.826219
v -0.074467 1.483605 -0.874739
v -0.074467 1.378293 -0.769427
v 0.074467 1.483605 -0.874739
v 0.074467 1.378293 -0.769427
v -0.075229 2.249769 -0.116582
v -0.075229 2.136450 -0.003263
v -0.075229 2.249769 0.110057
v -0.075229 2.363089 -0.003263
v 0.075229 2.363089 -0.003263
v 0.075229 2.249769 -0.116582
v 0.075229 2.136450 -0.003263
v 0.075229 2.249769 0.110057
v -0.075229 2.249769 -0.286126
v -0.075229 1.966907 -0.003263
v -0.075229 2.249769 0.279600
v -0.075229 2.532632 -0.003263
v 0.075229 2.532632 -0.003263
v 0.075229 2.249769 -0.286126
v 0.075229 1.966907 -0.003263
v 0.075229 2.249769 0.279600
v -0.112026 2.249769 -0.286126
v -0.112026 1.966907 -0.003263
v -0.112026 2.249769 0.279600
v -0.112026 2.532632 -0.003263
v 0.112026 2.532632 -0.003263
v 0.112026 2.249769 -0.286126
v 0.112026 1.966907 -0.003263
v 0.112026 2.249769 0.279600
vt 0.375000 0.250000
vt 0.375000 0.000000
vt 0.375000 0.000000
vt 0.375000 0.250000
vt 0.875000 0.500000
vt 0.625000 0.500000
vt 0.625000 0.500000
vt 0.875000 0.500000
vt 0.625000 0.000000
vt 0.625000 0.250000
vt 0.625000 0.250000
vt 0.625000 0.000000
vt 0.625000 0.750000
vt 0.625000 1.000000
vt 0.625000 1.000000
vt 0.625000 0.750000
vt 0.375000 0.250000
vt 0.375000 0.000000
vt 0.625000 0.000000
vt 0.625000 0.250000
vt 0.375000 0.250000
vt 0.625000 0.250000
vt 0.375000 0.500000
vt 0.375000 0.500000
vt 0.125000 0.500000
vt 0.125000 0.500000
vt 0.625000 0.500000
vt 0.875000 0.500000
vt 0.875000 0.750000
vt 0.625000 0.750000
vt 0.625000 1.000000
vt 0.375000 0.750000
vt 0.375000 1.000000
vt 0.375000 0.750000
vt 0.375000 0.000000
vt 0.625000 0.000000
vt 0.125000 0.750000
vt 0.125000 0.750000
vt 0.125000 0.500000
vt 0.375000 0.500000
vt 0.375000 0.750000
vt 0.125000 0.750000
vt 0.375000 0.750000
vt 0.625000 0.750000
vt 0.375000 0.500000
vt 0.625000 0.500000
vt 0.625000 0.500000
vt 0.375000 0.500000
vt 0.625000 0.750000
vt 0.625000 0.000000
vt 0.375000 0.000000
vt 0.375000 0.250000
vt 0.625000 0.250000
vt 0.375000 0.750000
vt 0.375000 0.000000
vt 0.375000 0.250000
vt 0.625000 0.250000
vt 0.625000 0.000000
vt 0.375000 0.500000
vt 0.625000 0.500000
vt 0.625000 0.750000
vt 0.375000 0.750000
vn 0.0000 -0.7071 -0.7071
vn 0.0000 0.7109 0.7033
vn 0.0000 0.7071 0.7071
vn 0.0000 0.7037 0.7105
vn -1.0000 0.0000 0.0000
vn 0.0000 0.7071 -0.7071
vn 1.0000 -0.0000 0.0000
vn 0.0000 -0.7033 -0.7109
vn 0.0000 -0.7036 0.7106
vn 0.0000 0.7106 -0.7036
vn 0.0000 -0.7071 0.7071
vn 0.0000 -0.7105 -0.7037
vn 0.0000 -0.7108 0.7034
vn 0.0000 0.7034 -0.7108
g Cube.033_Cube.024_Green
s off
f 67/91/21 65/92/21 90/93/21 89/94/21
f 68/95/22 72/96/22 76/97/22 73/98/22
f 66/99/23 68/100/23 92/101/23 91/102/23
f 70/103/24 66/104/24 82/105/24 83/106/24
f 65/92/25 67/91/25 85/107/25 86/108/25
f 68/100/25 66/99/25 77/109/25 78/110/25
f 74/111/26 73/112/26 76/97/26 75/113/26
f 67/91/25 68/100/25 73/112/25 74/111/25
f 72/96/27 71/114/27 75/113/27 76/97/27
f 71/114/28 67/115/28 74/116/28 75/113/28
f 79/117/23 78/118/23 77/119/23 80/120/23
f 66/104/29 70/103/29 80/120/29 77/121/29
f 72/96/30 68/95/30 78/118/30 79/117/30
f 70/103/27 72/96/27 79/117/27 80/120/27
f 84/122/31 83/106/31 82/105/31 81/123/31
f 69/124/27 70/103/27 83/106/27 84/122/27
f 66/99/25 65/92/25 81/125/25 82/126/25
f 65/127/32 69/124/32 84/122/32 81/128/32
f 85/129/21 87/130/21 88/131/21 86/132/21
f 71/114/27 69/124/27 88/131/27 87/130/27
f 69/124/33 65/127/33 86/132/33 88/131/33
f 67/115/34 71/114/34 87/130/34 85/129/34
f 70/103/31 69/124/31 95/133/31 96/134/31
f 69/124/21 71/114/21 94/135/21 95/133/21
f 68/100/26 67/91/26 89/94/26 92/101/26
f 65/92/31 66/99/31 91/102/31 90/93/31
f 72/96/23 70/103/23 96/134/23 93/136/23
f 71/114/26 72/96/26 93/136/26 94/135/26
f 94/135/25 93/136/25 101/137/25 102/138/25
f 93/136/25 96/134/25 104/139/25 101/137/25
f 90/93/27 91/102/27 99/140/27 98/141/27
f 92/101/27 89/94/27 97/142/27 100/143/27
f 95/133/25 94/135/25 102/138/25 103/144/25
f 96/134/25 95/133/25 103/144/25 104/139/25
f 89/94/27 90/93/27 98/141/27 97/142/27
f 91/102/27 92/101/27 100/143/27 99/140/27
f 97/142/21 98/141/21 106/145/21 105/146/21
f 99/140/23 100/143/23 108/147/23 107/148/23
f 106/145/25 107/148/25 108/147/25 105/146/25
f 110/149/27 109/150/27 112/151/27 111/152/27
f 104/139/31 103/144/31 111/152/31 112/151/31
f 103/144/21 102/138/21 110/149/21 111/152/21
f 100/143/26 97/142/26 105/146/26 108/147/26
f 98/141/31 99/140/31 107/148/31 106/145/31
f 101/137/23 104/139/23 112/151/23 109/150/23
f 102/138/26 101/137/26 109/150/26 110/149/26
o Cube.048_Cube.025
v -0.074467 3.865424 -0.003263
v -0.074467 3.978744 0.110057
v -0.074467 3.978744 -0.116582
v -0.074467 4.092063 -0.003263
v 0.074467 3.865424 -0.003263
v 0.074467 3.978744 0.110057
v 0.074467 3.978744 -0.116582
v 0.074467 4.092063 -0.003263
v -0.074467 4.841644 -0.760850
v -0.074467 4.736331 -0.866163
v 0.074467 4.736331 -0.866163
v 0.074467 4.841644 -0.760850
v -0.074467 4.783123 0.906429
v -0.074467 4.888435 0.801117
v 0.074467 4.888435 0.801117
v 0.074467 4.783123 0.906429
v -0.074467 3.043950 0.826219
v -0.074467 3.149262 0.931531
v 0.074467 3.149262 0.931531
v 0.074467 3.043950 0.826219
v -0.074467 3.212579 -0.874739
v -0.074467 3.107267 -0.769427
v 0.074467 3.212579 -0.874739
v 0.074467 3.107267 -0.769427
v -0.075229 3.978744 -0.116582
v -0.075229 3.865424 -0.003263
v -0.075229 3.978744 0.110057
v -0.075229 4.092063 -0.003263
v 0.075229 4.092063 -0.003263
v 0.075229 3.978744 -0.116582
v 0.075229 3.865424 -0.003263
v 0.075229 3.978744 0.110057
v -0.075229 3.978744 -0.286126
v -0.075229 3.695881 -0.003263
v -0.075229 3.978744 0.279600
v -0.075229 4.261606 -0.003263
v 0.075229 4.261606 -0.003263
v 0.075229 3.978744 -0.286126
v 0.075229 3.695881 -0.003263
v 0.075229 3.978744 0.279600
v -0.112026 3.978744 -0.286126
v -0.112026 3.695881 -0.003263
v -0.112026 3.978744 0.279600
v -0.112026 4.261606 -0.003263
v 0.112026 4.261606 -0.003263
v 0.112026 3.978744 -0.286126
v 0.112026 3.695881 -0.003263
v 0.112026 3.978744 0.279600
vt 0.375000 0.250000
vt 0.375000 0.000000
vt 0.375000 0.000000
vt 0.375000 0.250000
vt 0.875000 0.500000
vt 0.625000 0.500000
vt 0.625000 0.500000
vt 0.875000 0.500000
vt 0.625000 0.000000
vt 0.625000 0.250000
vt 0.625000 0.250000
vt 0.625000 0.000000
vt 0.625000 0.750000
vt 0.625000 1.000000
vt 0.625000 1.000000
vt 0.625000 0.750000
vt 0.375000 0.250000
vt 0.375000 0.000000
vt 0.625000 0.000000
vt 0.625000 0.250000
vt 0.375000 0.250000
vt 0.625000 0.250000
vt 0.375000 0.500000
vt 0.375000 0.500000
vt 0.125000 0.500000
vt 0.125000 0.500000
vt 0.625000 0.500000
vt 0.875000 0.500000
vt 0.875000 0.750000
vt 0.625000 0.750000
vt 0.625000 1.000000
vt 0.375000 0.750000
vt 0.375000 1.000000
vt 0.375000 0.750000
vt 0.375000 0.000000
vt 0.625000 0.000000
vt 0.125000 0.750000
vt 0.125000 0.750000
vt 0.125000 0.500000
vt 0.375000 0.500000
vt 0.375000 0.750000
vt 0.125000 0.750000
vt 0.375000 0.750000
vt 0.625000 0.750000
vt 0.375000 0.500000
vt 0.625000 0.500000
vt 0.625000 0.500000
vt 0.375000 0.500000
vt 0.625000 0.750000
vt 0.625000 0.000000
vt 0.375000 0.000000
vt 0.375000 0.250000
vt 0.625000 0.250000
vt 0.375000 0.750000
vt 0.375000 0.000000
vt 0.375000 0.250000
vt 0.625000 0.250000
vt 0.625000 0.000000
vt 0.375000 0.500000
vt 0.625000 0.500000
vt 0.625000 0.750000
vt 0.375000 0.750000
vn 0.0000 -0.7071 -0.7071
vn 0.0000 0.7109 0.7033
vn 0.0000 0.7071 0.7071
vn 0.0000 0.7037 0.7105
vn -1.0000 0.0000 0.0000
vn 0.0000 0.7071 -0.7071
vn 1.0000 -0.0000 0.0000
vn 0.0000 -0.7033 -0.7109
vn 0.0000 -0.7036 0.7106
vn 0.0000 0.7106 -0.7036
vn 0.0000 -0.7071 0.7071
vn 0.0000 -0.7105 -0.7037
vn 0.0000 -0.7108 0.7034
vn 0.0000 0.7034 -0.7108
g Cube.048_Cube.025_Green
s off
f 115/153/35 113/154/35 138/155/35 137/156/35
f 116/157/36 120/158/36 124/159/36 121/160/36
f 114/161/37 116/162/37 140/163/37 139/164/37
f 118/165/38 114/166/38 130/167/38 131/168/38
f 113/154/39 115/153/39 133/169/39 134/170/39
f 116/162/39 114/161/39 125/171/39 126/172/39
f 122/173/40 121/174/40 124/159/40 123/175/40
f 115/153/39 116/162/39 121/174/39 122/173/39
f 120/158/41 119/176/41 123/175/41 124/159/41
f 119/176/42 115/177/42 122/178/42 123/175/42
f 127/179/37 126/180/37 125/181/37 128/182/37
f 114/166/43 118/165/43 128/182/43 125/183/43
f 120/158/44 116/157/44 126/180/44 127/179/44
f 118/165/41 120/158/41 127/179/41 128/182/41
f 132/184/45 131/168/45 130/167/45 129/185/45
f 117/186/41 118/165/41 131/168/41 132/184/41
f 114/161/39 113/154/39 129/187/39 130/188/39
f 113/189/46 117/186/46 132/184/46 129/190/46
f 133/191/35 135/192/35 136/193/35 134/194/35
f 119/176/41 117/186/41 136/193/41 135/192/41
f 117/186/47 113/189/47 134/194/47 136/193/47
f 115/177/48 119/176/48 135/192/48 133/191/48
f 118/165/45 117/186/45 143/195/45 144/196/45
f 117/186/35 119/176/35 142/197/35 143/195/35
f 116/162/40 115/153/40 137/156/40 140/163/40
f 113/154/45 114/161/45 139/164/45 138/155/45
f 120/158/37 118/165/37 144/196/37 141/198/37
f 119/176/40 120/158/40 141/198/40 142/197/40
f 142/197/39 141/198/39 149/199/39 150/200/39
f 141/198/39 144/196/39 152/201/39 149/199/39
f 138/155/41 139/164/41 147/202/41 146/203/41
f 140/163/41 137/156/41 145/204/41 148/205/41
f 143/195/39 142/197/39 150/200/39 151/206/39
f 144/196/39 143/195/39 151/206/39 152/201/39
f 137/156/41 138/155/41 146/203/41 145/204/41
f 139/164/41 140/163/41 148/205/41 147/202/41
f 145/204/35 146/203/35 154/207/35 153/208/35
f 147/202/37 148/205/37 156/209/37 155/210/37
f 154/207/39 155/210/39 156/209/39 153/208/39
f 158/211/41 157/212/41 160/213/41 159/214/41
f 152/201/45 151/206/45 159/214/45 160/213/45
f 151/206/35 150/200/35 158/211/35 159/214/35
f 148/205/40 145/204/40 153/208/40 156/209/40
f 146/203/45 147/202/45 155/210/45 154/207/45
f 149/199/37 152/201/37 160/213/37 157/212/37
f 150/200/40 149/199/40 157/212/40 158/211/40
o Cube.052_Cube.029
v -0.085393 -0.334921 0.743302
v -0.085393 -0.164136 0.743302
v -0.085393 -0.334921 -0.743302
v -0.085393 -0.164136 -0.743302
v 0.085393 -0.334921 0.743302
v 0.085393 -0.164136 0.743302
v 0.085393 -0.334921 -0.743302
v 0.085393 -0.164136 -0.743302
v -0.085393 1.319252 0.743302
v -0.085393 1.490037 0.743302
v -0.085393 1.319252 -0.743302
v -0.085393 1.490037 -0.743302
v 0.085393 1.319252 0.743302
v 0.085393 1.490037 0.743302
v 0.085393 1.319252 -0.743302
v 0.085393 1.490037 -0.743302
v -0.085393 3.070336 0.743302
v -0.085393 3.241121 0.743302
v -0.085393 3.070336 -0.743302
v -0.085393 3.241121 -0.743302
v 0.085393 3.070336 0.743302
v 0.085393 3.241121 0.743302
v 0.085393 3.070336 -0.743302
v 0.085393 3.241121 -0.743302
vt 0.375000 0.000000
vt 0.625000 0.000000
vt 0.625000 0.250000
vt 0.375000 0.250000
vt 0.625000 0.500000
vt 0.375000 0.500000
vt 0.625000 0.750000
vt 0.375000 0.750000
vt 0.625000 1.000000
vt 0.375000 1.000000
vt 0.125000 0.500000
vt 0.125000 0.750000
vt 0.875000 0.500000
vt 0.875000 0.750000
vt 0.375000 0.000000
vt 0.625000 0.000000
vt 0.625000 0.250000
vt 0.375000 0.250000
vt 0.625000 0.500000
vt 0.375000 0.500000
vt 0.625000 0.750000
vt 0.375000 0.750000
vt 0.625000 1.000000
vt 0.375000 1.000000
vt 0.125000 0.500000
vt 0.125000 0.750000
vt 0.875000 0.500000
vt 0.875000 0.750000
vt 0.375000 0.000000
vt 0.625000 0.000000
vt 0.625000 0.250000
vt 0.375000 0.250000
vt 0.625000 0.500000
vt 0.375000 0.500000
vt 0.625000 0.750000
vt 0.375000 0.750000
vt 0.625000 1.000000
vt 0.375000 1.000000
vt 0.125000 0.500000
vt 0.125000 0.750000
vt 0.875000 0.500000
vt 0.875000 0.750000
vn -1.0000 0.0000 0.0000
vn 0.0000 0.0000 -1.0000
vn 1.0000 0.0000 0.0000
vn 0.0000 0.0000 1.0000
vn 0.0000 -1.0000 0.0000
vn 0.0000 1.0000 0.0000
g Cube.052_Cube.029_Green
s off
f 161/215/49 162/216/49 164/217/49 163/218/49
f 163/218/50 164/217/50 168/219/50 167/220/50
f 167/220/51 168/219/51 166/221/51 165/222/51
f 165/222/52 166/221/52 162/223/52 161/224/52
f 163/225/53 167/220/53 165/222/53 161/226/53
f 168/219/54 164/227/54 162/228/54 166/221/54
f 169/229/49 170/230/49 172/231/49 171/232/49
f 171/232/50 172/231/50 176/233/50 175/234/50
f 175/234/51 176/233/51 174/235/51 173/236/51
f 173/236/52 174/235/52 170/237/52 169/238/52
f 171/239/53 175/234/53 173/236/53 169/240/53
f 176/233/54 172/241/54 170/242/54 174/235/54
f 177/243/49 178/244/49 180/245/49 179/246/49
f 179/246/50 180/245/50 184/247/50 183/248/50
f 183/248/51 184/247/51 182/249/51 181/250/51
f 181/250/52 182/249/52 178/251/52 177/252/52
f 179/253/53 183/248/53 181/250/53 177/254/53
f 184/247/54 180/255/54 178/256/54 182/249/54
