# Blender v3.0.1 OBJ File: 'Car for Dead rase.blend'
# www.blender.org
o Rocket.001_Cylinder.025
v -0.167463 0.000302 -0.053000
v -0.167463 0.026950 -0.045860
v -0.167463 0.046458 -0.026352
v -0.167463 0.053598 0.000296
v -0.167463 0.046458 0.026944
v -0.167463 0.026951 0.046452
v -0.167463 0.000096 0.053592
v -0.167463 -0.026346 0.046452
v -0.167463 -0.045853 0.026944
v -0.167463 -0.052994 0.000296
v -0.167463 -0.045853 -0.026352
v -0.167463 -0.026346 -0.045860
v 0.275040 0.000298 -0.038798
v 0.275040 0.019845 -0.033560
v 0.275040 0.034154 -0.019251
v 0.275040 0.039392 0.000296
v 0.275040 0.034154 0.019843
v 0.275040 0.019845 0.034152
v 0.275040 0.000146 0.039390
v 0.275040 -0.019249 0.034152
v 0.275040 -0.033558 0.019843
v 0.275040 -0.038796 0.000296
v 0.275040 -0.033558 -0.019251
v 0.275040 -0.019249 -0.033560
v 0.290637 -0.019249 -0.033560
v 0.290637 -0.033558 -0.019251
v 0.290637 -0.038796 0.000296
v 0.290637 -0.033558 0.019843
v 0.290637 -0.019249 0.034152
v 0.290637 0.000146 0.039390
v 0.290637 0.019845 0.034152
v 0.290637 0.034154 0.019843
v 0.290637 0.039392 0.000296
v 0.290637 0.034154 -0.019251
v 0.290637 0.019845 -0.033560
v 0.290637 0.000298 -0.038798
v -0.311272 0.031871 -0.054379
v -0.311272 0.000304 -0.062838
v -0.311272 0.054980 -0.031271
v -0.311272 0.063438 0.000296
v -0.311272 0.054980 0.031863
v -0.311272 0.031871 0.054972
v -0.311272 0.000074 0.063430
v -0.311272 -0.031262 0.054972
v -0.311272 -0.054371 0.031863
v -0.311272 -0.062829 0.000296
v -0.311272 -0.054371 -0.031271
v -0.311272 -0.031262 -0.054379
v -0.387280 0.028297 -0.048187
v -0.387280 0.000306 -0.055687
v -0.387280 0.048788 -0.027695
v -0.387280 0.056289 0.000296
v -0.387280 0.048788 0.028288
v -0.387280 0.028297 0.048779
v -0.387280 0.000061 0.056279
v -0.387280 -0.027686 0.048779
v -0.387280 -0.048177 0.028288
v -0.387280 -0.055677 0.000296
v -0.387280 -0.048177 -0.027695
v -0.387280 -0.027686 -0.048187
v -0.444058 0.021090 -0.035708
v -0.444058 0.000303 -0.041278
v -0.444058 0.036308 -0.020491
v -0.444058 0.041877 0.000296
v -0.444058 0.036308 0.021083
v -0.444058 0.021090 0.036301
v -0.444058 0.000088 0.041870
v -0.444058 -0.020484 0.036301
v -0.444058 -0.035701 0.021083
v -0.444058 -0.041271 0.000296
v -0.444058 -0.035701 -0.020491
v -0.444058 -0.020484 -0.035708
v -0.481983 0.009938 -0.016392
v -0.481983 0.000303 -0.018973
v -0.481983 0.016991 -0.009339
v -0.481983 0.019572 0.000296
v -0.481983 0.016991 0.009931
v -0.481983 0.009938 0.016984
v -0.481983 0.000088 0.019565
v -0.481983 -0.009331 0.016984
v -0.481983 -0.016385 0.009931
v -0.481983 -0.018966 0.000296
v -0.481983 -0.016385 -0.009339
v -0.481983 -0.009331 -0.016392
v 0.290637 0.000298 -0.038798
v 0.290637 0.019845 -0.033560
v 0.290637 0.034154 -0.019251
v 0.290637 0.039392 0.000296
v 0.290637 0.034154 0.019843
v 0.290637 0.019845 0.034152
v 0.290637 0.000146 0.039390
v 0.290637 -0.019249 0.034152
v 0.290637 -0.033558 0.019843
v 0.290637 -0.038796 0.000296
v 0.290637 -0.033558 -0.019251
v 0.290637 -0.019249 -0.033560
v 0.290637 -0.022521 -0.039230
v 0.290637 -0.039226 -0.022525
v 0.290637 -0.045341 0.000296
v 0.290637 -0.039226 0.023117
v 0.290637 -0.022521 0.039823
v 0.290637 0.000123 0.045937
v 0.290637 0.023121 0.039823
v 0.290637 0.039826 0.023117
v 0.290637 0.045941 0.000296
v 0.290637 0.039826 -0.022525
v 0.290637 0.023121 -0.039230
v 0.290637 0.000300 -0.045345
v 0.129111 0.042165 0.024466
v 0.129111 0.000113 0.048636
v 0.129111 0.048641 0.000296
v 0.129111 0.000301 -0.048044
v 0.129111 -0.041563 0.024466
v 0.129111 -0.023869 -0.041568
v 0.129111 -0.048040 0.000296
v 0.129111 -0.023869 0.042160
v 0.129111 0.024471 0.042160
v 0.129111 -0.041563 -0.023874
v 0.129111 0.042165 -0.023874
v 0.129111 0.024471 -0.041568
v 0.149161 0.060606 0.003502
v 0.294472 0.057906 0.003502
v 0.149161 0.003507 -0.060009
v 0.294472 0.003506 -0.057310
v 0.294472 -0.025750 0.051781
v 0.294472 -0.003107 0.057896
v 0.294472 0.051791 0.026323
v 0.294472 0.026327 -0.051195
v 0.294472 -0.051191 -0.025731
v 0.294472 -0.057306 -0.002910
v 0.149160 -0.053528 -0.027080
v 0.149161 0.027677 -0.053533
v 0.149161 0.054130 0.027672
v 0.149161 -0.003116 0.060595
v 0.149160 -0.060004 -0.002910
v 0.149161 -0.027099 0.054119
v -0.308775 0.025556 -0.066725
v -0.308799 0.012010 -0.070352
v -0.308683 0.065358 0.025185
v -0.308683 0.069095 0.011247
v -0.308798 -0.024989 0.067323
v -0.308774 -0.011543 0.070953
v -0.308890 -0.064707 -0.024583
v -0.308890 -0.068444 -0.010644
v -0.347798 0.023875 -0.063686
v -0.347820 0.011864 -0.066902
v -0.347710 0.062365 0.023537
v -0.347711 0.065679 0.011178
v -0.347819 -0.023390 0.064263
v -0.347798 -0.011483 0.067479
v -0.347907 -0.061795 -0.022957
v -0.347907 -0.065109 -0.010597
vt 0.916667 1.000000
vt 0.833333 1.000000
vt 0.833333 1.000000
vt 0.916667 1.000000
vt 0.500000 1.000000
vt 0.583333 1.000000
vt 0.583333 1.000000
vt 0.500000 1.000000
vt 0.416667 1.000000
vt 0.416667 1.000000
vt 0.333333 1.000000
vt 0.333333 1.000000
vt 0.250000 1.000000
vt 0.250000 1.000000
vt 0.166667 1.000000
vt 0.166667 1.000000
vt 0.833333 1.000000
vt 0.916667 1.000000
vt 0.916667 1.000000
vt 0.833333 1.000000
vt 0.083333 1.000000
vt 0.083333 1.000000
vt 0.750000 1.000000
vt 0.750000 1.000000
vt 1.000000 1.000000
vt 1.000000 1.000000
vt 0.000000 1.000000
vt 0.000000 1.000000
vt 0.666667 1.000000
vt 0.666667 1.000000
vt 0.083333 1.000000
vt 0.000000 1.000000
vt 0.000000 1.000000
vt 0.083333 1.000000
vt 0.500000 1.000000
vt 0.416667 1.000000
vt 0.416667 1.000000
vt 0.500000 1.000000
vt 0.333333 1.000000
vt 0.333333 1.000000
vt 1.000000 1.000000
vt 0.916667 1.000000
vt 1.000000 1.000000
vt 0.833333 1.000000
vt 0.083333 1.000000
vt 0.000000 1.000000
vt 0.583333 1.000000
vt 0.500000 1.000000
vt 0.583333 1.000000
vt 0.750000 1.000000
vt 0.750000 1.000000
vt 0.416667 1.000000
vt 0.750000 1.000000
vt 0.666667 1.000000
vt 0.666667 1.000000
vt 0.583333 1.000000
vt 0.333333 1.000000
vt 0.166667 1.000000
vt 0.166667 1.000000
vt 0.250000 1.000000
vt 0.250000 1.000000
vt 0.250000 1.000000
vt 0.166667 1.000000
vt 0.666667 1.000000
vt 1.000000 1.000000
vt 0.916667 1.000000
vt 0.833333 1.000000
vt 0.750000 1.000000
vt 0.750000 1.000000
vt 0.750000 1.000000
vt 0.333333 1.000000
vt 0.250000 1.000000
vt 0.416667 1.000000
vt 0.500000 1.000000
vt 0.416667 1.000000
vt 0.500000 1.000000
vt 0.583333 1.000000
vt 0.666667 1.000000
vt 0.666667 1.000000
vt 0.083333 1.000000
vt 0.000000 1.000000
vt 0.666667 1.000000
vt 0.166667 1.000000
vt 0.666667 1.000000
vt 0.750000 1.000000
vt 0.750000 1.000000
vt 0.666667 1.000000
vt 0.370000 0.457846
vt 0.250000 0.490000
vt 0.130000 0.457846
vt 0.042154 0.370000
vt 0.010000 0.250000
vt 0.042154 0.130000
vt 0.130000 0.042154
vt 0.250000 0.010000
vt 0.370000 0.042154
vt 0.457846 0.130000
vt 0.490000 0.250000
vt 0.457846 0.370000
vt 0.083333 1.000000
vt 0.166667 1.000000
vt 0.166667 1.000000
vt 0.083333 1.000000
vt 0.916667 1.000000
vt 1.000000 1.000000
vt 1.000000 1.000000
vt 0.916667 1.000000
vt 0.333333 1.000000
vt 0.416667 1.000000
vt 0.416667 1.000000
vt 0.333333 1.000000
vt 0.583333 1.000000
vt 0.583333 1.000000
vt 0.000000 1.000000
vt 0.000000 1.000000
vt 0.833333 1.000000
vt 0.833333 1.000000
vt 0.250000 1.000000
vt 0.250000 1.000000
vt 0.500000 1.000000
vt 0.500000 1.000000
vt 0.333333 1.000000
vt 0.250000 1.000000
vt 0.083333 1.000000
vt 0.000000 1.000000
vt 0.000000 1.000000
vt 0.083333 1.000000
vt 0.166667 1.000000
vt 1.000000 1.000000
vt 0.916667 1.000000
vt 0.833333 1.000000
vt 0.583333 1.000000
vt 0.500000 1.000000
vt 0.416667 1.000000
vt 0.750000 1.000000
vt 0.666667 1.000000
vt 1.000000 1.000000
vt 0.916667 1.000000
vt 0.916667 1.000000
vt 1.000000 1.000000
vt 0.250000 1.000000
vt 0.250000 1.000000
vt 0.250000 1.000000
vt 0.583333 1.000000
vt 0.500000 1.000000
vt 0.333333 1.000000
vt 0.833333 1.000000
vt 0.750000 1.000000
vt 0.916667 1.000000
vt 0.000000 1.000000
vt 0.000000 1.000000
vt 0.416667 1.000000
vt 0.166667 1.000000
vt 0.666667 1.000000
vt 0.166667 1.000000
vt 0.166667 1.000000
vt 1.000000 1.000000
vt 0.500000 1.000000
vt 0.416667 1.000000
vt 0.416667 1.000000
vt 0.500000 1.000000
vt 0.750000 1.000000
vt 0.666667 1.000000
vt 0.666667 1.000000
vt 0.750000 1.000000
vt 0.166667 1.000000
vt 0.250000 1.000000
vt 0.250000 1.000000
vt 0.166667 1.000000
vt 0.416667 1.000000
vt 0.500000 1.000000
vt 0.916667 1.000000
vt 1.000000 1.000000
vt 1.000000 1.000000
vt 0.916667 1.000000
vt 1.000000 1.000000
vt 0.000000 1.000000
vt 0.000000 1.000000
vn 0.0000 -0.7071 0.7071
vn 0.0659 0.2565 0.9643
vn 0.0660 -0.2601 0.9633
vn 0.0659 -0.7056 0.7056
vn 0.0659 -0.9638 0.2583
vn 0.0659 -0.9638 -0.2583
vn 0.0659 0.7056 -0.7056
vn 0.0659 -0.7056 -0.7056
vn 0.0659 0.9638 -0.2583
vn 0.0659 0.2583 -0.9638
vn 0.0659 -0.2583 -0.9638
vn 0.0659 0.9638 0.2583
vn 0.0659 0.7056 0.7056
vn 0.0000 0.2588 0.9659
vn 0.0000 0.0000 1.0000
vn 0.0000 -0.2570 -0.9664
vn 0.0000 -0.9659 0.2588
vn 0.0000 0.2607 -0.9654
vn 0.0000 0.7071 -0.7071
vn 0.0000 0.9659 -0.2588
vn 0.0000 0.7071 0.7071
vn 0.0000 -0.9659 -0.2588
vn 0.0000 0.9659 0.2588
vn 0.0000 -0.2588 0.9659
vn 0.0000 -0.7071 -0.7071
vn -0.0905 0.7042 -0.7042
vn -0.0812 0.8870 -0.4545
vn -0.0905 -0.9620 0.2578
vn -0.0905 -0.7042 0.7042
vn -0.3306 -0.2460 0.9111
vn -0.0905 0.2559 0.9625
vn -0.0905 0.7042 0.7042
vn 0.9546 -0.2877 -0.0771
vn -0.0905 -0.2578 -0.9620
vn -0.0813 0.5420 0.8364
vn -0.0905 0.9620 -0.2578
vn -0.0905 -0.7042 -0.7042
vn -0.4940 0.8399 0.2250
vn -1.0000 -0.0000 0.0000
vn -0.4940 -0.6148 -0.6148
vn -0.4940 0.2250 -0.8399
vn -0.4940 -0.6148 0.6148
vn -0.4940 0.6148 0.6148
vn -0.4940 -0.2250 -0.8399
vn -0.4940 0.6148 -0.6148
vn -0.4940 -0.8399 0.2250
vn -0.4940 0.2221 0.8406
vn -0.4940 0.8399 -0.2250
vn -0.4940 -0.8399 -0.2250
vn -0.4940 -0.2280 0.8390
vn 1.0000 0.0000 0.0000
vn 0.0161 -0.2588 -0.9658
vn -0.5256 0.2202 -0.8217
vn 0.0045 -0.2546 0.9670
vn 0.0161 0.2569 0.9663
vn 0.0161 -0.9658 0.2588
vn 0.0161 0.9658 -0.2588
vn 0.0045 0.9648 0.2630
vn 0.0045 -0.9670 -0.2546
vn 0.0161 0.7070 -0.7070
vn 0.0161 -0.7070 0.7070
vn 0.0161 -0.7070 -0.7070
vn 0.0161 0.7070 0.7070
vn 0.0161 0.9658 0.2588
vn 0.0161 -0.2607 0.9653
vn 0.0161 0.2588 -0.9658
vn 0.0161 -0.9658 -0.2588
vn 0.0179 -0.9658 -0.2588
vn 0.0179 0.2588 -0.9658
vn 0.0179 -0.2607 0.9653
vn 0.0179 0.9658 0.2588
vn 0.0044 -0.9643 -0.2648
vn -0.5256 -0.8217 -0.2202
vn 0.9553 -0.0766 0.2857
vn 0.0045 -0.2630 0.9648
vn 0.9553 0.0771 -0.2855
vn 0.0045 0.2630 -0.9648
vn 0.9553 0.2857 0.0765
vn 0.0045 0.9665 0.2566
vn -0.5256 0.8217 0.2202
vn -0.5256 -0.2218 0.8213
vn 0.0045 0.2546 -0.9670
vn 0.9553 -0.2857 -0.0766
vn -0.0826 -0.9626 -0.2581
vn -0.0860 -0.2596 0.9619
vn -0.0847 0.9624 0.2580
vn -0.0861 0.2578 -0.9624
vn -0.0806 -0.8861 0.4565
vn -0.3306 0.2444 -0.9116
vn -0.0806 -0.5402 -0.8377
vn -0.0767 -0.5377 -0.8396
vn 0.9720 0.0607 -0.2268
vn -0.2899 -0.9244 -0.2477
vn -0.0764 -0.8885 0.4524
vn 0.9720 -0.0612 0.2267
vn -0.2877 0.9251 0.2479
vn -0.0773 0.5383 0.8392
vn 0.9608 0.2679 0.0718
vn -0.0772 0.8856 -0.4579
vn -0.2381 0.9381 0.2514
vn -0.2380 -0.6868 -0.6868
vn -0.2381 0.2514 -0.9382
vn -0.2380 -0.6868 0.6868
vn -0.2381 0.6868 0.6868
vn -0.2381 -0.2514 -0.9382
vn -0.2381 0.6868 -0.6868
vn -0.2380 -0.9382 0.2514
vn -0.2380 0.2492 0.9387
vn -0.2381 0.9381 -0.2514
vn -0.2380 -0.9382 -0.2514
vn -0.2381 -0.2536 0.9375
g Rocket.001_Cylinder.025_Basis
s off
f 35/1/1 34/2/1 15/3/1 14/4/1
f 7/5/2 6/6/2 42/7/2 43/8/2
f 8/9/3 7/5/3 43/8/3 44/10/3
f 9/11/4 8/9/4 44/10/4 45/12/4
f 10/13/5 9/11/5 45/12/5 46/14/5
f 11/15/6 10/13/6 46/14/6 47/16/6
f 3/17/7 2/18/7 37/19/7 39/20/7
f 12/21/8 11/15/8 47/16/8 48/22/8
f 4/23/9 3/17/9 39/20/9 40/24/9
f 2/18/10 1/25/10 38/26/10 37/19/10
f 1/27/11 12/21/11 48/22/11 38/28/11
f 5/29/12 4/23/12 40/24/12 41/30/12
f 6/6/13 5/29/13 41/30/13 42/7/13
f 25/31/14 36/32/14 13/33/14 24/34/14
f 91/35/15 92/36/15 29/37/15 30/38/15
f 92/36/15 93/39/15 28/40/15 29/37/15
f 85/41/15 86/42/15 35/1/15 36/43/15
f 86/42/15 87/44/15 34/2/15 35/1/15
f 96/45/15 85/46/15 36/32/15 25/31/15
f 31/47/16 30/38/16 19/48/16 18/49/16
f 34/2/17 33/50/17 16/51/17 15/3/17
f 30/38/18 29/37/18 20/52/18 19/48/18
f 88/53/15 89/54/15 32/55/15 33/50/15
f 89/54/15 90/56/15 31/47/15 32/55/15
f 29/37/19 28/40/19 21/57/19 20/52/19
f 95/58/15 96/45/15 25/31/15 26/59/15
f 93/39/15 94/60/15 27/61/15 28/40/15
f 28/40/20 27/61/20 22/62/20 21/57/20
f 87/44/15 88/53/15 33/50/15 34/2/15
f 94/60/15 95/58/15 26/59/15 27/61/15
f 26/59/21 25/31/21 24/34/21 23/63/21
f 33/50/22 32/55/22 17/64/22 16/51/22
f 27/61/23 26/59/23 23/63/23 22/62/23
f 36/43/24 35/1/24 14/4/24 13/65/24
f 32/55/25 31/47/25 18/49/25 17/64/25
f 39/20/26 37/19/26 49/66/26 51/67/26
f 40/24/27 52/68/27 148/69/27 140/70/27
f 46/14/28 45/12/28 57/71/28 58/72/28
f 45/12/29 44/10/29 56/73/29 57/71/29
f 55/74/30 56/73/30 149/75/30 150/76/30
f 43/8/31 42/7/31 54/77/31 55/74/31
f 42/7/32 41/30/32 53/78/32 54/77/32
f 41/30/33 40/24/33 140/70/33 139/79/33
f 38/28/34 48/22/34 60/80/34 50/81/34
f 53/78/35 41/30/35 139/79/35 147/82/35
f 40/24/36 39/20/36 51/67/36 52/68/36
f 48/22/37 47/16/37 59/83/37 60/80/37
f 65/84/38 64/85/38 76/86/38 77/87/38
f 73/88/39 74/89/39 84/90/39 83/91/39 82/92/39 81/93/39 80/94/39 79/95/39 78/96/39 77/97/39 76/98/39 75/99/39
f 72/100/40 71/101/40 83/102/40 84/103/40
f 61/104/41 62/105/41 74/106/41 73/107/41
f 69/108/42 68/109/42 80/110/42 81/111/42
f 66/112/43 65/84/43 77/87/43 78/113/43
f 62/114/44 72/100/44 84/103/44 74/115/44
f 63/116/45 61/104/45 73/107/45 75/117/45
f 70/118/46 69/108/46 81/111/46 82/119/46
f 67/120/47 66/112/47 78/113/47 79/121/47
f 64/85/48 63/116/48 75/117/48 76/86/48
f 71/101/49 70/118/49 82/119/49 83/102/49
f 68/109/50 67/120/50 79/121/50 80/110/50
f 100/122/51 99/123/51 94/60/51 93/39/51
f 114/124/52 112/125/52 108/126/52 97/127/52
f 99/123/51 98/128/51 95/58/51 94/60/51
f 108/129/51 107/130/51 86/42/51 85/41/51
f 107/130/51 106/131/51 87/44/51 86/42/51
f 103/132/51 102/133/51 91/35/51 90/56/51
f 97/127/51 108/126/51 85/46/51 96/45/51
f 101/134/51 100/122/51 93/39/51 92/36/51
f 105/135/51 104/136/51 89/54/51 88/53/51
f 98/128/51 97/127/51 96/45/51 95/58/51
f 90/56/15 91/35/15 30/38/15 31/47/15
f 106/131/51 105/135/51 88/53/51 87/44/51
f 102/133/51 101/134/51 92/36/51 91/35/51
f 112/137/53 120/138/53 132/139/53 123/140/53
f 99/123/54 115/141/54 135/142/54 130/143/54
f 117/144/55 110/145/55 102/133/55 103/132/55
f 113/146/56 115/141/56 99/123/56 100/122/56
f 119/147/57 111/148/57 105/135/57 106/131/57
f 120/138/58 107/130/58 128/149/58 132/139/58
f 108/126/59 112/125/59 123/150/59 124/151/59
f 104/136/51 103/132/51 90/56/51 89/54/51
f 120/138/60 119/147/60 106/131/60 107/130/60
f 116/152/61 113/146/61 100/122/61 101/134/61
f 118/153/62 114/124/62 97/127/62 98/128/62
f 109/154/63 117/144/63 103/132/63 104/136/63
f 5/29/63 6/6/63 117/144/63 109/154/63
f 11/15/62 12/21/62 114/124/62 118/153/62
f 8/9/61 9/11/61 113/146/61 116/152/61
f 2/18/60 3/17/60 119/147/60 120/138/60
f 4/23/64 5/29/64 109/154/64 111/148/64
f 7/5/65 8/9/65 116/152/65 110/145/65
f 3/17/57 4/23/57 111/148/57 119/147/57
f 9/11/56 10/13/56 115/141/56 113/146/56
f 6/6/55 7/5/55 110/145/55 117/144/55
f 1/25/66 2/18/66 120/138/66 112/137/66
f 10/13/67 11/15/67 118/153/67 115/141/67
f 12/21/52 1/27/52 112/125/52 114/124/52
f 135/142/68 131/155/68 129/156/68 130/143/68
f 123/140/69 132/139/69 128/149/69 124/157/69
f 134/158/70 136/159/70 125/160/70 126/161/70
f 121/162/71 133/163/71 127/164/71 122/165/71
f 116/152/72 101/134/72 125/160/72 136/159/72
f 115/141/73 118/153/73 131/155/73 135/142/73
f 107/130/74 108/129/74 124/157/74 128/149/74
f 109/154/75 104/136/75 127/164/75 133/163/75
f 101/134/76 102/133/76 126/161/76 125/160/76
f 118/153/77 98/128/77 129/156/77 131/155/77
f 98/128/78 99/123/78 130/143/78 129/156/78
f 102/133/79 110/145/79 134/158/79 126/161/79
f 111/148/80 109/154/80 133/163/80 121/162/80
f 110/145/81 116/152/81 136/159/81 134/158/81
f 105/135/82 111/148/82 121/162/82 122/165/82
f 104/136/83 105/135/83 122/165/83 127/164/83
f 143/166/84 144/167/84 152/168/84 151/169/84
f 141/170/85 142/171/85 150/76/85 149/75/85
f 139/79/86 140/70/86 148/69/86 147/82/86
f 137/172/87 138/173/87 146/174/87 145/175/87
f 46/14/88 58/72/88 152/168/88 144/167/88
f 50/176/89 49/66/89 145/175/89 146/174/89
f 59/83/90 47/16/90 143/166/90 151/169/90
f 38/28/91 50/81/91 146/177/91 138/178/91
f 44/10/92 43/8/92 142/171/92 141/170/92
f 58/72/93 59/83/93 151/169/93 152/168/93
f 56/73/94 44/10/94 141/170/94 149/75/94
f 37/19/95 38/26/95 138/173/95 137/172/95
f 52/68/96 53/78/96 147/82/96 148/69/96
f 43/8/97 55/74/97 150/76/97 142/171/97
f 47/16/98 46/14/98 144/167/98 143/166/98
f 49/66/99 37/19/99 137/172/99 145/175/99
g Rocket.001_Cylinder.025_Black
f 21/57/51 22/62/51 23/63/51 24/34/51 13/33/51 14/4/51 15/3/51 16/51/51 17/64/51 18/49/51 19/48/51 20/52/51
g Rocket.001_Cylinder.025_Black.001
f 53/78/100 52/68/100 64/85/100 65/84/100
f 60/80/101 59/83/101 71/101/101 72/100/101
f 49/66/102 50/176/102 62/105/102 61/104/102
f 57/71/103 56/73/103 68/109/103 69/108/103
f 54/77/104 53/78/104 65/84/104 66/112/104
f 50/81/105 60/80/105 72/100/105 62/114/105
f 51/67/106 49/66/106 61/104/106 63/116/106
f 58/72/107 57/71/107 69/108/107 70/118/107
f 55/74/108 54/77/108 66/112/108 67/120/108
f 52/68/109 51/67/109 63/116/109 64/85/109
f 59/83/110 58/72/110 70/118/110 71/101/110
f 56/73/111 55/74/111 67/120/111 68/109/111
